<svg width="64" height="56" viewBox="0 0 64 56" fill="none" xmlns="http://www.w3.org/2000/svg">
<mask id="mask0_2_20" style="mask-type:alpha" maskUnits="userSpaceOnUse" x="0" y="0" width="64" height="56">
<rect width="64" height="56" fill="#D9D9D9"/>
</mask>
<g mask="url(#mask0_2_20)">
<path d="M1.23962 34.8999C1.52011 34.9392 1.77222 34.973 2.02434 35.009C3.53702 35.2251 4.27699 36.0153 4.32283 37.5749C4.36321 38.9577 4.36212 40.3438 4.32501 41.7266C4.28681 43.1389 3.68218 43.8232 2.31247 44.1342C2.0669 44.1899 1.82461 44.2587 1.58559 44.3198C1.51793 44.9648 1.79733 45.3195 2.38559 45.3293C3.84152 45.3555 5.29854 45.3381 6.69117 45.3381C7.97685 40.6363 10.0985 38.8082 14.1214 38.7645C18.5689 38.7165 20.7386 40.3831 22.0963 44.9091H42.6354C42.726 44.4224 42.7849 43.9694 42.8952 43.5285C43.6603 40.4508 46.4073 38.3378 49.8736 38.1665C51.7334 38.0748 53.4971 38.4306 55.0981 39.4107C56.8509 40.4835 57.9609 42.0278 58.3014 44.0677C58.3778 44.5239 58.5186 44.6821 58.9737 44.6516C59.8425 44.5915 60.7145 44.5894 61.5833 44.5348C62.2228 44.4955 62.5241 44.155 62.5284 43.4827C62.535 42.2789 62.5852 41.074 62.6517 39.8712C62.679 39.3943 62.5492 39.1705 62.0635 38.9872C60.2223 38.2909 59.1604 36.4409 59.5773 34.7362C59.896 33.4309 60.7996 32.6581 61.9947 32.1441C62.2196 32.047 62.5273 31.7566 62.5197 31.5657C62.4204 28.9037 62.4138 26.2265 62.0995 23.5875C61.7164 20.358 59.3524 18.2254 56.0357 17.9941C53.7655 17.8358 51.4791 17.9111 49.1991 17.8871C48.1743 17.8762 47.1484 17.8762 46.1225 17.8751C45.6684 17.8751 45.1544 17.862 45.1631 17.2683C45.1729 16.644 45.7012 16.6342 46.1868 16.6353C48.648 16.6385 51.1102 16.5796 53.5691 16.6505C54.9923 16.6909 56.4548 16.763 57.8212 17.1188C61.1936 17.9952 63.2673 20.6025 63.3928 24.0885C63.5969 29.7463 63.7093 35.4074 63.8381 41.0674C63.8588 41.9875 63.777 42.9119 63.7159 43.8319C63.6504 44.8153 63.1331 45.5007 62.1584 45.6611C61.1533 45.8259 60.1219 45.8521 59.1003 45.8892C58.583 45.9078 58.3756 46.0355 58.2905 46.615C57.7186 50.5222 54.057 53.3217 50.0581 52.9702C46.1563 52.6264 43.6788 50.4415 42.7882 46.603C42.7435 46.4087 42.403 46.1446 42.2 46.1446C35.6374 46.1479 29.0747 46.1817 22.5121 46.1992C22.0614 46.2003 21.9272 46.3607 21.8388 46.8038C21.1697 50.1511 18.1651 52.5479 14.5842 52.6363C11.0142 52.7247 7.83933 50.4153 7.0306 47.0767C6.89745 46.5288 6.70864 46.376 6.17385 46.4131C4.99841 46.4939 3.8186 46.5244 2.63989 46.5604C1.2287 46.603 0.376319 46.0016 0.316292 44.5915C0.138393 40.3143 -0.049328 36.036 0.0117905 31.7632C0.051081 28.9867 0.414518 26.2003 0.819428 23.4456C1.38368 19.6061 4.34138 16.7226 9.03987 16.6364C12.8838 16.5665 16.7299 16.5938 20.5749 16.5774C21.0224 16.5752 21.4426 16.6549 21.412 17.2203C21.3815 17.7703 20.9482 17.814 20.5116 17.814C17.0246 17.8162 13.5386 17.8085 10.0516 17.8358C9.20904 17.8424 8.35447 17.8926 7.52828 18.0464C4.42979 18.6238 2.58095 20.5479 1.92502 23.9706C1.24726 27.5078 1.19815 31.1007 1.16759 34.6892C1.16759 34.7373 1.19924 34.7842 1.23853 34.8999H1.23962ZM50.5492 51.7708C51.1309 51.6889 51.7213 51.6496 52.2911 51.5187C54.9257 50.9129 56.8771 48.7432 57.1205 46.1861C57.3977 43.2731 56.1983 41.027 53.5844 40.0437C52.4198 39.6049 51.0916 39.3823 49.8463 39.4161C47.0283 39.4925 44.8357 41.1907 44.1525 43.546C42.9563 47.6671 46.1235 51.7206 50.5492 51.7708ZM14.606 39.9094C13.8835 39.9946 13.2701 40.0349 12.6677 40.1419C8.39594 40.895 6.60823 45.5913 9.29308 48.9855C11.883 52.2597 17.1523 52.1713 19.6407 48.812C22.009 45.6142 20.5891 41.3752 16.767 40.3023C16.0347 40.0971 15.2641 40.0262 14.6071 39.9094H14.606ZM1.35422 42.9752C2.83088 42.8257 3.06663 42.6063 3.09828 41.3097C3.12665 40.1353 3.14302 38.9566 3.07972 37.7845C3.00769 36.4355 2.6126 36.1386 1.11083 36.215C1.1916 38.4469 1.27127 40.681 1.35422 42.9741V42.9752ZM62.5623 37.7681V33.3195C61.3955 33.6535 60.7134 34.4775 60.72 35.4652C60.7265 36.5239 61.4883 37.469 62.5623 37.7681Z" fill="black"/>
<path d="M42.9727 15.892C42.6562 15.235 42.0832 15.0375 41.3803 15.0626C40.4592 15.0953 39.5358 15.0887 38.6136 15.0909C37.1337 15.0953 35.6526 15.0909 34.0646 15.0909C34.344 13.4571 34.5972 11.9248 34.869 10.3946C35.2575 8.20418 35.6832 6.02029 36.0445 3.82548C36.2311 2.68387 35.3099 1.75618 34.2775 2.0574C33.8573 2.18073 33.4273 2.54526 33.1708 2.91743C29.436 8.33515 25.734 13.7736 22.0145 19.2022C21.627 19.7687 21.412 20.3373 21.7624 20.9878C22.1214 21.6579 22.7184 21.8336 23.4409 21.826C25.4098 21.8063 27.3776 21.8194 29.4404 21.8194C29.2887 22.2025 29.1664 22.5048 29.0486 22.8082C27.6625 26.3837 26.2731 29.9569 24.8958 33.5356C24.5553 34.4197 24.7724 35.1367 25.4557 35.5471C26.1945 35.9913 26.8723 35.8309 27.6057 35.0036C30.6322 31.5918 33.6696 28.191 36.6687 24.7542C38.6889 22.4383 40.648 20.0677 42.6431 17.7299C43.12 17.1701 43.299 16.5676 42.9727 15.8909V15.892Z" fill="#FF7637"/>
<path d="M43.9626 21.4931C43.4878 21.4931 43.1495 21.5771 42.8864 21.4702C42.6103 21.3578 42.4084 21.0642 42.1738 20.8503C42.3964 20.6593 42.6092 20.3155 42.8428 20.3002C45.3061 20.143 45.0714 20.0612 45.1118 22.1872C45.2002 26.8508 45.2995 31.5154 45.4403 36.1779C45.4742 37.2835 45.2242 38.1435 44.3031 38.8508C43.0436 39.8177 42.1781 41.1362 41.4829 42.5495C41.0442 43.4423 40.3719 43.9443 39.3896 43.9913C38.2654 44.0458 37.138 44.0677 36.0128 44.0917C35.3798 44.1048 35.1757 43.7173 35.1659 43.1487C35.0895 38.7918 35.0098 34.4349 34.929 30.0792C34.9214 29.6502 35.0305 29.2595 35.5217 29.2661C36.0412 29.2726 36.1579 29.6808 36.1656 30.137C36.2136 32.7509 36.2802 35.3648 36.3173 37.9787C36.3402 39.5624 36.3217 41.1471 36.3217 42.901C37.532 42.8377 38.5699 42.8224 39.5959 42.7012C39.86 42.6707 40.1732 42.3542 40.3129 42.089C41.2275 40.3449 42.3571 38.7875 43.8873 37.5182C44.1186 37.3261 44.2016 36.8404 44.1961 36.4933C44.1361 32.7007 44.0401 28.9081 43.9669 25.1155C43.944 23.94 43.9637 22.7646 43.9637 21.4931H43.9626Z" fill="black"/>
<path d="M53.8528 30.4273C51.9331 30.4273 50.0122 30.4109 48.0935 30.436C47.3721 30.4459 47.0851 30.1599 47.0807 29.4385C47.0632 26.7002 47.0218 23.9618 46.9694 21.2246C46.9563 20.5338 47.2455 20.2631 47.932 20.2685C50.798 20.2947 53.664 20.2751 56.5301 20.3111C57.9161 20.3286 58.9202 21.0314 59.4681 22.2942C60.5006 24.6745 60.6381 27.1946 60.5246 29.743C60.4995 30.3138 60.1066 30.4306 59.6144 30.4284C57.6946 30.4197 55.7748 30.4251 53.8539 30.4251L53.8528 30.4273ZM48.2922 29.1831C50.4804 29.1831 52.5246 29.1962 54.5688 29.1646C54.7925 29.1613 55.0687 28.9485 55.2247 28.7553C55.7061 28.1583 56.1372 27.5209 56.5934 26.9043C56.8466 26.5616 57.1631 26.34 57.5647 26.6532C57.962 26.9632 57.8212 27.319 57.5691 27.6606C57.2417 28.1048 56.9252 28.5567 56.5224 29.1198H59.2782C59.359 26.9425 59.1865 24.847 58.3625 22.8443C57.9871 21.9307 57.2646 21.5378 56.3085 21.5171C55.1571 21.4909 54.0046 21.456 52.8531 21.4473C51.3284 21.4353 49.8037 21.444 48.2922 21.444V29.1831Z" fill="black"/>
<path d="M13.6969 25.5258C13.6969 26.8835 13.6882 28.2412 13.7013 29.5979C13.7078 30.2909 13.4459 30.6107 12.7004 30.614C10.0112 30.6238 7.32201 30.686 4.63279 30.7209C3.67127 30.7329 3.48573 30.5681 3.46717 29.6404C3.42133 27.403 3.57304 25.1908 4.33702 23.0582C4.88818 21.5215 5.95666 20.6582 7.59704 20.5938C9.36184 20.5239 11.1288 20.5065 12.8947 20.4617C13.4753 20.4475 13.7329 20.7226 13.7285 21.301C13.7187 22.71 13.7253 24.119 13.7253 25.5269C13.7165 25.5269 13.7067 25.5269 13.698 25.5269L13.6969 25.5258ZM12.4396 21.6175C10.6813 21.695 8.94165 21.6983 7.22378 21.8915C6.70646 21.9493 6.03743 22.4273 5.79841 22.8966C4.76703 24.9277 4.68954 27.1477 4.72665 29.3676H12.4385V21.6175H12.4396Z" fill="black"/>
<path d="M16.3916 21.6219V29.313H23.7171C23.7171 27.808 23.7171 26.3837 23.7171 24.9605C23.7171 24.6789 23.6298 24.3689 23.7192 24.1223C23.8229 23.8396 24.0794 23.6126 24.2693 23.3616C24.4898 23.5908 24.8947 23.8134 24.9023 24.0481C24.9634 25.993 24.9591 27.9411 24.9569 29.8871C24.9569 30.5015 24.48 30.5441 24.0314 30.5506C22.546 30.5725 21.0595 30.5758 19.5741 30.5932C18.4216 30.6063 17.268 30.6161 16.1165 30.6565C15.442 30.6805 15.1288 30.4208 15.1299 29.719C15.1343 26.9272 15.1234 24.1343 15.0939 21.3425C15.0873 20.6986 15.3067 20.3951 15.9812 20.4093C16.6972 20.4246 17.4153 20.3788 18.1313 20.3493C18.6104 20.3297 19.1659 20.3122 19.203 20.9212C19.2456 21.6044 18.6399 21.6011 18.1509 21.6164C17.5692 21.6339 16.9864 21.6208 16.3927 21.6208L16.3916 21.6219Z" fill="black"/>
<path d="M36.9962 27.9651C37.3749 27.9411 37.7252 27.9193 38.1334 27.8942C38.1738 28.3897 38.2098 28.8371 38.2491 29.3272H41.8583V23.7425C41.5735 23.7152 41.341 23.7567 41.1948 23.6639C40.9481 23.5078 40.7571 23.2655 40.5421 23.0593C40.7691 22.8606 40.995 22.662 41.2232 22.4666C41.2384 22.4535 41.2734 22.4644 41.2985 22.4623C42.9476 22.3335 43.0316 22.4099 43.0774 24.0743C43.1277 25.8915 43.1658 27.7086 43.2357 29.5247C43.263 30.2407 42.9672 30.5627 42.2534 30.5692C40.7942 30.5823 39.335 30.614 37.8769 30.6511C37.3083 30.6652 37.0027 30.4219 36.9972 29.8456C36.9907 29.2344 36.9962 28.6232 36.9962 27.9662V27.9651Z" fill="black"/>
<path d="M50.4029 41.8587C48.6578 41.8554 47.1407 43.4357 47.1331 45.2638C47.1265 47.1552 48.732 48.7607 50.6038 48.7334C52.3587 48.7072 53.8649 47.1629 53.8507 45.4057C53.8343 43.5405 52.2038 41.863 50.4029 41.8587Z" fill="#FF7637"/>
<path d="M14.4783 42.4589C12.7201 42.4677 11.3547 43.8265 11.358 45.564C11.3613 47.3746 12.7463 48.7749 14.5515 48.7913C16.3315 48.8076 17.7514 47.3855 17.7547 45.5847C17.758 43.8079 16.3337 42.4491 14.4783 42.4589Z" fill="#FF7637"/>
</g>
</svg>
