<svg width="64" height="56" viewBox="0 0 64 56" fill="none" xmlns="http://www.w3.org/2000/svg">
<mask id="mask0_10_117" style="mask-type:alpha" maskUnits="userSpaceOnUse" x="0" y="0" width="64" height="56">
<rect width="64" height="56" fill="#D9D9D9"/>
</mask>
<g mask="url(#mask0_10_117)">
<path d="M28.3427 41.1317C26.8982 41.1352 25.7639 40.0095 25.7605 38.5667C25.7553 37.1394 26.9068 35.9724 28.3272 35.9672C29.7321 35.9621 30.9163 37.1411 30.9232 38.5512C30.9301 39.9733 29.7752 41.1283 28.3444 41.1317H28.3427Z" fill="#FF7637"/>
<path d="M49.0454 39.3372C48.0818 39.3372 47.7129 39.1114 47.7319 38.5305C47.7509 37.972 48.1077 37.7617 49.0316 37.7617C49.1385 37.7617 49.2454 37.7617 49.3505 37.7617C49.8832 37.7668 50.2779 37.9599 50.3141 38.5494C50.3434 39.0304 49.9849 39.3113 49.3626 39.3338C49.2557 39.3372 49.1488 39.3338 49.0437 39.3338L49.0454 39.3372Z" fill="black"/>
<path d="M13.5216 40.9336C15.3022 40.9439 16.683 42.3592 16.6623 44.1519C16.6416 45.8826 15.204 47.2944 13.4767 47.2789C11.7236 47.2633 10.305 45.805 10.3274 44.0416C10.3498 42.3092 11.7736 40.9232 13.5233 40.9336H13.5216Z" fill="#FF7637"/>
<path d="M11.4634 8.20902C11.6944 8.45897 11.865 8.86924 11.8685 9.20882C11.8978 12.6064 11.8874 16.004 11.8857 19.3999C11.8857 19.4206 11.8857 19.4412 11.8857 19.4619H16.4158V19.2223C16.4158 15.3093 16.4089 11.3963 16.4245 7.48331C16.4262 6.97307 16.29 6.58694 15.9194 6.22839C14.9765 5.31823 14.0491 4.38738 13.1493 3.43413C12.7562 3.01697 12.3494 2.92733 11.8202 3.08247C10.9135 3.34794 9.99644 3.57203 9.08628 3.82887C8.19508 4.08055 8.03132 4.68215 8.67602 5.34753C9.60514 6.30424 10.5653 7.22991 11.4668 8.21075L11.4634 8.20902Z" fill="#FF7637"/>
<path d="M63.9321 35.657C62.4013 28.9411 56.4612 24.5041 49.5867 24.9678C49.0316 25.0057 48.8248 24.885 48.7007 24.3093C47.3268 17.8847 45.915 11.4688 44.5188 5.04938C44.0757 3.00842 42.845 2 40.7488 2C35.2224 2 29.6976 2 24.1711 2C22.0112 2 20.9046 3.09633 20.9046 5.23728C20.9046 9.92426 20.9046 14.6112 20.9046 19.3V20.0326H17.7931V20.0791H11.8512C10.8911 20.0791 9.97057 20.0757 9.05179 20.0791C6.78501 20.0894 5.4008 21.4702 5.38701 23.7387C5.38184 24.5506 5.38701 25.3625 5.38701 26.252C4.58545 26.252 3.89938 26.2451 3.21159 26.252C1.29129 26.2744 -0.223921 27.7034 -0.235987 29.6168C-0.265292 34.24 -0.26012 38.8632 -0.235987 43.4847C-0.227368 45.0361 0.860343 46.3824 2.33935 46.7203C2.89614 46.8478 3.49257 46.853 4.06831 46.8358C4.51305 46.8237 4.69577 46.984 4.85091 47.3908C6.23512 51.0039 9.64132 53.3517 13.4647 53.3603C17.3243 53.3689 20.758 51.0228 22.1491 47.3925C22.306 46.984 22.4836 46.8375 22.9266 46.8392C28.3668 46.8547 33.8071 46.8444 39.2457 46.8651C39.518 46.8651 39.8714 47.0288 40.0507 47.2357C43.3466 51.0228 47.4716 52.6863 52.4637 52.0744C60.2328 51.1228 65.6748 43.3072 63.9286 35.6535L63.9321 35.657ZM43.7689 9.00376C44.6239 12.9254 45.4772 16.8453 46.3477 20.8427H45.6737C40.4265 20.8427 35.1793 20.8427 29.9338 20.8427C29.0081 20.8427 28.8823 20.7221 28.8823 19.8102C28.8805 16.4988 28.8788 13.1874 28.8823 9.87599C28.8823 9.14683 29.0443 8.971 29.7304 8.971C34.2898 8.96756 38.8475 8.96928 43.4069 8.971C43.5121 8.971 43.6172 8.98997 43.7689 9.00548V9.00376ZM22.468 25.5073C22.468 18.7759 22.468 12.0445 22.468 5.31485C22.468 3.95995 22.8766 3.55831 24.2522 3.55831C29.7149 3.55831 35.1775 3.55831 40.6385 3.55831C42.1261 3.55831 42.6726 4.00304 42.9966 5.46999C43.1294 6.07331 43.2621 6.67836 43.419 7.40063H42.5398C38.3028 7.40063 34.0674 7.39891 29.8303 7.40063C28.129 7.40063 27.3033 8.22633 27.3015 9.9346C27.2964 13.246 27.2964 16.5574 27.3015 19.8705C27.305 21.5736 28.1376 22.4045 29.8338 22.4062C35.1672 22.4079 40.5006 22.4062 45.834 22.4062H46.6804C46.8924 23.3509 47.101 24.2834 47.3285 25.2987C45.9512 25.6194 44.7411 26.2985 43.2483 26.283C36.6048 26.2106 29.9579 26.252 23.3127 26.252H22.4698V25.5073H22.468ZM7.00565 23.1319C7.07977 22.2442 7.87961 21.6788 8.91044 21.6546C9.81198 21.634 10.7135 21.6495 11.6168 21.6495C14.4507 21.6495 17.2863 21.6495 20.1202 21.6495H20.8787V26.2123H6.98669C6.98669 25.1763 6.92119 24.1472 7.00565 23.1337V23.1319ZM13.4699 48.8423C10.8514 48.8336 8.74495 46.691 8.76219 44.0518C8.77771 41.4575 10.8962 39.3493 13.494 39.3425C16.1107 39.3356 18.2413 41.4765 18.2344 44.107C18.2275 46.741 16.1055 48.8509 13.4716 48.8423H13.4699ZM22.7197 45.2154C22.9972 41.9247 21.9612 39.1477 19.4462 36.9964C17.6759 35.4829 15.5867 34.7744 13.263 34.8244C8.10888 34.9364 3.63909 39.4769 4.23725 45.1654C2.43071 45.6136 1.32059 44.7724 1.32059 42.9469C1.31887 38.6254 1.31542 34.3021 1.32232 29.9806C1.32404 28.5584 2.0601 27.8137 3.45982 27.8137C16.1676 27.8103 28.8771 27.812 41.5849 27.812H42.1537C40.261 29.3824 38.9113 31.1338 38.0252 33.2316C38.0166 33.2506 38.0046 33.2695 37.9977 33.2902C37.7994 33.7832 37.7322 34.5003 37.3685 34.7141C36.9324 34.9709 36.2446 34.8054 35.6654 34.8123C35.0414 34.8192 34.4173 34.7968 33.7951 34.8175C32.6246 34.8572 31.5576 34.7037 30.4699 34.1039C28.4375 32.9834 25.8967 33.6988 24.4228 35.5949C22.9955 37.4308 23.049 39.9199 24.5556 41.7196C26.1018 43.5675 28.5978 44.1156 30.6612 42.9383C31.5507 42.4315 32.4333 42.2522 33.4227 42.2815C34.6035 42.316 35.7878 42.3022 36.9703 42.2815C37.3254 42.2763 37.4926 42.3815 37.6167 42.7331C37.9063 43.5588 38.2614 44.3604 38.6079 45.2171H22.7214L22.7197 45.2154ZM49.2454 36.4017C50.5141 36.4017 51.3949 36.9274 51.7294 37.86C52.2258 39.2476 51.1967 40.7025 49.6746 40.7129C46.7752 40.7318 43.8741 40.718 40.9746 40.718C38.2252 40.718 35.474 40.7284 32.7246 40.7129C31.7955 40.7077 30.9594 40.9232 30.1648 41.4248C28.6995 42.3505 26.9016 42.0643 25.7881 40.7853C24.7072 39.5441 24.6831 37.7393 25.7329 36.4689C26.8672 35.095 28.6254 34.752 30.1234 35.6811C30.9629 36.2017 31.842 36.4068 32.8125 36.4051C38.2907 36.3965 43.7689 36.3999 49.2471 36.4017H49.2454ZM51.5501 50.6195C46.1339 51.1177 39.9955 47.0133 39.1974 42.2867C41.0746 42.2867 42.9001 42.2867 44.7256 42.2867C46.4235 42.2867 48.1232 42.3091 49.8211 42.2746C51.7173 42.235 53.267 40.7404 53.4118 38.8753C53.5566 36.986 52.2293 35.2536 50.3521 34.914C49.9521 34.8416 49.5401 34.8158 49.1333 34.8158C46.0581 34.8072 42.9829 34.8106 39.9076 34.8106H39.1957C40.1248 31.0769 44.6653 25.99 51.6863 26.5123C57.6868 26.9587 62.6065 32.256 62.6737 38.4719C62.7427 44.7603 57.9126 50.0351 51.5484 50.6195H51.5501Z" fill="black"/>
</g>
</svg>
