<svg width="64" height="56" viewBox="0 0 64 56" fill="none" xmlns="http://www.w3.org/2000/svg">
<mask id="mask0_10_139" style="mask-type:alpha" maskUnits="userSpaceOnUse" x="0" y="0" width="64" height="56">
<rect width="64" height="56" fill="#D9D9D9"/>
</mask>
<g mask="url(#mask0_10_139)">
<path d="M43.9313 42.893C44.0217 40.931 44.1029 39.157 44.1817 37.3852C44.4577 31.3649 44.7221 25.3423 45.0189 19.3221C45.056 18.5498 44.9818 17.8889 44.358 17.3485C44.133 17.1561 43.9034 16.8546 43.8687 16.5786C43.6715 15.0109 42.4169 14.5448 41.262 13.9372C38.7319 12.6107 36.1972 11.2912 33.7042 9.89972C32.3615 9.15066 31.0906 8.33667 29.4766 9.81159C29.4766 10.6511 29.4418 11.7642 29.5044 12.8728C29.5183 13.1232 29.8268 13.434 30.0795 13.5801C31.6217 14.4706 32.2989 15.7693 32.0299 17.4251C31.8142 18.7492 30.6894 19.8554 29.3166 20.0966C27.8115 20.361 25.9168 19.5122 25.286 18.1834C25.1353 17.8657 25.3533 17.374 25.402 16.9613C25.8125 17.0239 26.2809 16.9844 26.6218 17.1746C27.0764 17.432 27.3871 17.9422 27.8393 18.2089C28.7832 18.7608 29.836 18.3805 30.2558 17.4204C30.6848 16.4371 30.1932 15.1941 29.131 15.0434C27.9205 14.8718 27.7002 14.2294 27.7953 13.2137C27.8347 12.7916 27.7674 12.3602 27.8092 11.9405C27.9553 10.498 27.8069 9.42895 26.1325 8.72859C24.3352 7.97722 23.5815 5.72309 23.9758 3.77508C24.3584 1.88737 25.8658 0.444916 27.8393 0.0808233C29.8082 -0.283269 31.7029 0.607249 32.8508 2.25842C33.2798 2.87529 33.9176 3.46897 34.5924 3.7774C38.5603 5.58627 42.5653 7.32092 46.5704 9.0463C47.0829 9.26662 47.6742 9.37329 48.2331 9.39648C50.2832 9.47997 51.7906 10.4145 52.6579 12.2466C53.5531 14.139 53.2145 15.913 51.9367 17.5619C51.6584 17.9213 51.4311 18.4478 51.4497 18.8861C51.7651 26.6851 52.1222 34.4817 52.4747 42.2784C52.4816 42.4268 52.5211 42.5753 52.5118 42.515C53.4765 42.893 54.6871 42.9973 55.0419 43.6026C55.4616 44.3169 55.1393 45.4648 55.1393 46.6267C56.3916 46.6267 57.5326 46.6614 58.6689 46.6174C59.6754 46.5779 60.0511 47.0186 60.0348 48.0019C60 50.205 59.9977 52.4081 60.0348 54.6089C60.0511 55.5991 59.6591 55.9933 58.6619 55.9887C51.4752 55.9678 44.2861 55.9678 37.0993 55.9887C36.0975 55.991 35.7195 55.5875 35.7334 54.6019C35.7682 52.3617 35.7635 50.1192 35.7334 47.8789C35.7218 46.9884 36.1044 46.6081 36.9811 46.622C38.2913 46.6429 39.6039 46.6267 41.0974 46.6267C41.0974 45.8335 41.1461 45.11 41.0858 44.398C40.9907 43.3034 41.4128 42.7909 42.5352 42.886C42.9503 42.9208 43.3701 42.8906 43.9313 42.8906V42.893ZM58.2422 48.4355H37.5214V54.1868H58.2422V48.4355ZM50.8421 42.835C50.4664 34.8574 50.0953 27.0213 49.7266 19.1922H46.7095C46.3408 27.077 45.9744 34.9154 45.6056 42.835H50.8421ZM45.2091 10.3009C41.2945 8.57785 37.4959 6.90813 33.6486 5.21522C33.3819 6.01761 33.1453 6.72725 32.8926 7.49022C36.4059 9.36402 39.8636 11.2077 43.3515 13.0699C43.6344 12.5318 43.8292 12.0704 44.1052 11.6645C44.402 11.2239 44.7754 10.832 45.2114 10.3009H45.2091ZM48.2494 17.5387C49.9446 17.548 51.4079 16.1009 51.4473 14.3778C51.4868 12.6246 49.9979 11.0894 48.2563 11.0871C46.4706 11.0871 45.0027 12.5458 45.0166 14.3129C45.0305 16.131 46.4335 17.5294 48.2517 17.5387H48.2494ZM31.8235 4.85577C31.8258 3.04458 30.4761 1.69489 28.6765 1.71344C26.9534 1.72967 25.5759 3.10488 25.5736 4.80938C25.5736 6.59042 26.9697 7.98186 28.7414 7.96562C30.4668 7.94939 31.8211 6.58346 31.8235 4.85808V4.85577ZM42.8483 46.571H53.407V44.6578H42.8483V46.571Z" fill="#FF7637"/>
<path d="M35.2858 28.4035C34.7896 29.0482 34.3652 29.6929 33.8457 30.2472C33.2196 30.9197 32.99 31.5366 33.6161 32.3506C33.9129 32.7379 34.175 33.2365 34.233 33.7119C34.4417 35.4442 35.5015 35.8709 37.0669 35.9358C38.6206 36.0008 38.7296 36.2443 38.7343 37.7957C38.7343 38.1436 38.725 38.4914 38.7296 38.8393C38.7621 41.6454 38.7876 41.272 36.2413 41.592C35.2163 41.7196 34.5901 41.9747 34.4579 43.0716C34.4092 43.4797 34.2539 43.9319 34.0057 44.252C32.874 45.7014 33.2798 46.8841 34.5159 48.0019C35.3531 48.7579 35.3067 49.4791 34.4092 50.2143C33.7553 50.75 33.1871 51.3947 32.598 52.0046C32.0855 52.5357 31.5127 52.6957 31.0049 52.102C29.6436 50.5134 28.3194 50.6387 26.4247 51.4364C24.7898 52.1229 24.1265 52.9044 24.1497 54.5254C24.1659 55.5899 23.6442 56.0629 22.5612 55.9934C21.7147 55.9377 20.8613 55.9493 20.0125 55.9887C19.1336 56.0282 18.6466 55.5945 18.6582 54.7805C18.6837 52.8696 17.8998 51.9466 16.0052 51.2045C14.3007 50.5389 13.2153 50.5227 12.0326 51.8075C11.2975 52.6052 10.611 52.5287 9.90605 51.6822C9.3402 51.0028 8.66999 50.4068 8.03225 49.7899C7.51974 49.2936 7.44089 48.7278 7.97195 48.2802C9.62544 46.8864 9.4376 45.5043 8.62825 43.6003C7.95572 42.0187 7.19971 41.3787 5.60651 41.4042C4.48409 41.4227 3.89969 40.8963 4.01332 39.6788C4.08985 38.8741 4.04579 38.0578 4.02028 37.2461C3.99477 36.395 4.36814 35.8686 5.22851 35.908C7.14173 35.9915 8.06936 35.2239 8.80682 33.3176C9.46775 31.6131 9.4979 30.5255 8.19227 29.3474C7.43857 28.6679 7.47104 27.9884 8.25488 27.2997C8.92045 26.7153 9.54196 26.0729 10.1472 25.4259C10.6597 24.8762 11.2418 24.7116 11.7358 25.2983C13.1295 26.9495 14.5024 26.7779 16.4041 25.9592C17.9787 25.2798 18.6304 24.5168 18.6002 22.9306C18.5793 21.7873 19.1081 21.2353 20.3209 21.3466C21.1628 21.4232 22.0185 21.3721 22.8696 21.3605C23.6233 21.349 24.1335 21.7246 24.0825 22.4459C23.9294 24.6188 25.1005 25.4467 26.9906 26.2074C28.5119 26.8196 29.4302 26.7732 30.5758 25.6856C31.733 24.5864 31.8699 24.6745 33.0248 25.8271C33.572 26.372 34.1309 26.9077 34.655 27.4736C34.8823 27.7171 35.0377 28.0278 35.2905 28.4059L35.2858 28.4035ZM31.7052 26.7779C30.9585 27.3623 30.2929 27.8284 29.6946 28.3687C29.1032 28.9021 28.6069 28.872 27.946 28.4546C27.139 27.9444 26.2717 27.3182 25.3719 27.2092C23.2615 26.9495 22.5148 25.7969 22.5287 23.835C22.5287 23.5474 22.2504 23.0743 22.0046 23.0001C20.8288 22.643 20.3256 23.0071 20.1517 24.2014C20.096 24.584 20.0009 24.962 19.9824 25.347C19.9406 26.2027 19.5232 26.5923 18.6883 26.8567C17.341 27.2834 16.0817 27.9768 14.7413 28.429C14.2473 28.596 13.547 28.5612 13.0878 28.3293C12.355 27.956 11.7451 27.3391 11.156 26.8822C10.5693 27.3739 10.0707 27.7959 9.52572 28.2551C10.0939 28.9856 10.5531 29.6512 11.0888 30.2472C11.6407 30.8641 11.6639 31.3835 11.1931 32.0908C10.6853 32.8538 10.1055 33.7026 9.99881 34.5699C9.73444 36.7174 8.57027 37.5058 6.54805 37.4966C6.28368 37.4966 5.86161 37.9812 5.78044 38.3106C5.52999 39.317 5.88944 39.9339 7.05825 39.8713C7.43625 39.8504 7.8189 40.0011 8.20154 40.0313C9.01089 40.0916 9.35411 40.516 9.60457 41.2975C10.0359 42.6449 10.6041 43.9621 11.2395 45.2283C11.592 45.931 11.5549 46.4365 11.0725 47.0093C10.5554 47.6216 10.0846 48.2755 9.60921 48.8901C10.1124 49.4374 10.5554 49.9198 11.0447 50.4531C11.7335 49.9221 12.4014 49.4652 12.9974 48.9272C13.6096 48.3776 14.1383 48.308 14.8387 48.8089C15.4579 49.2519 16.1582 49.7342 16.8795 49.8595C19.0872 50.2375 20.4531 51.1999 20.2815 53.6766C20.2699 53.8436 20.9842 54.1683 21.39 54.2286C21.8191 54.2935 22.5565 54.4767 22.5078 53.6697C22.364 51.2231 23.8506 50.5621 25.8658 49.7389C28.1269 48.8136 29.9543 47.9903 31.5521 50.4995C32.1737 49.8803 32.656 49.4026 33.1709 48.8924C32.6421 48.2153 32.1737 47.5543 31.638 46.9514C31.1185 46.3646 31.1185 45.8614 31.5429 45.1982C32.0368 44.4259 32.6421 43.5934 32.7488 42.733C33.0178 40.5392 34.2214 39.7507 36.2784 39.7623C36.5312 39.7623 36.9115 39.2428 37.0066 38.9019C37.1225 38.4961 36.9973 38.0184 36.9741 37.5685C36.1161 37.4455 35.3948 37.318 34.6666 37.2461C33.8411 37.1649 33.4097 36.8008 33.1477 35.9497C32.7302 34.6001 32.1458 33.2921 31.522 32.0213C31.1788 31.3209 31.2136 30.8107 31.7029 30.2379C32.22 29.6326 32.6838 28.9787 33.2311 28.2667C32.7094 27.7588 32.2455 27.3089 31.7075 26.7848L31.7052 26.7779Z" fill="black"/>
<path d="M21.2161 47.0395C16.4783 46.9699 12.8744 43.213 12.9579 38.4334C13.0368 33.8533 16.8192 30.2193 21.4434 30.2796C26.1627 30.3399 29.8105 34.1339 29.7224 38.8856C29.6389 43.431 25.8009 47.109 21.2161 47.0418V47.0395ZM14.6393 38.6885C14.6578 42.4222 17.6424 45.386 21.3576 45.3581C25.1005 45.3303 28.0365 42.3758 28.0365 38.6398C28.0365 34.9363 25.031 31.954 21.3065 31.9586C17.5914 31.9656 14.6207 34.9618 14.6393 38.6862V38.6885Z" fill="black"/>
</g>
</svg>
