<svg width="64" height="56" viewBox="0 0 64 56" fill="none" xmlns="http://www.w3.org/2000/svg">
<mask id="mask0_10_138" style="mask-type:alpha" maskUnits="userSpaceOnUse" x="0" y="0" width="64" height="56">
<rect width="64" height="56" fill="#D9D9D9"/>
</mask>
<g mask="url(#mask0_10_138)">
<path d="M10.8438 50.5994V12.1046C10.5824 12.1046 10.3475 12.1135 10.1141 12.1032C8.82172 12.0441 7.5293 11.9806 6.23836 11.9185C5.77605 10.6305 6.14974 9.29825 6.03453 7.99107C6.01238 7.73554 5.98136 7.46228 6.04339 7.22005C6.13497 6.86408 6.22507 6.45641 6.45844 6.19941C7.91186 4.58647 9.39629 2.99717 10.9029 1.43002C11.1141 1.20994 11.5011 1.05042 11.8083 1.04599C14.111 1.01497 16.4182 0.95589 18.7165 1.05485C20.161 1.11689 21.5967 1.42559 23.0339 1.64272C27.7471 2.35613 32.4589 3.07545 37.1707 3.79625C41.1366 4.40184 45.1039 5.01038 49.0698 5.61893C50.3607 5.81685 51.6517 6.02807 52.9455 6.20827C53.4935 6.2836 53.7033 6.58344 53.7047 7.10336C53.7047 8.48588 53.721 9.86692 53.718 11.2494C53.718 11.886 53.4921 12.0943 52.8436 12.1061C52.5128 12.112 52.1804 12.1105 51.8496 12.115C51.8141 12.115 51.7787 12.1327 51.6487 12.1667C51.6487 12.8845 51.6487 13.6319 51.6487 14.3778C51.6472 15.2478 51.4907 15.4044 50.6192 15.4058C49.8821 15.4058 49.1466 15.4058 48.318 15.4058C48.318 15.6156 48.318 15.8076 48.318 16.0011C48.318 17.4013 48.3194 18.8016 48.318 20.2018C48.3165 20.9049 48.1703 21.0644 47.4687 21.1545C46.671 21.2579 46.0581 21.8664 45.9827 22.6301C45.9015 23.4557 46.3697 24.1972 47.126 24.4424C47.8911 24.6906 48.6843 24.373 49.1141 23.6478C49.151 23.5843 49.1776 23.5148 49.2175 23.4528C49.4272 23.116 49.7093 22.9417 50.0978 23.1338C50.5069 23.3376 50.5557 23.6876 50.3873 24.0717C50.0535 24.8324 49.4686 25.3434 48.6414 25.7053C49.4745 26.3892 50.2603 27.0376 51.049 27.6816C53.5172 29.6963 55.9824 31.7183 58.4623 33.7183C58.8449 34.027 59.0029 34.3593 59 34.8467C58.9852 38.1819 58.9941 41.5171 58.9911 44.8523C58.9911 45.6956 58.8212 45.8729 57.9941 45.8729C50.9929 45.8758 43.9902 45.8758 36.989 45.8729C36.1633 45.8729 35.995 45.6956 35.995 44.8508C35.992 41.4979 35.9994 38.1435 35.9876 34.7906C35.9861 34.3445 36.1338 34.0388 36.4839 33.7552C39.7186 31.1349 42.94 28.4984 46.1659 25.8663C46.2516 25.7969 46.3284 25.7186 46.4303 25.6241C45.1512 24.9092 44.5131 23.8546 44.6815 22.3864C44.8129 21.2505 45.5367 20.4603 46.9635 19.8518V15.4058C46.0935 15.4058 45.2516 15.4088 44.4082 15.4058C43.7317 15.4029 43.5235 15.1961 43.5131 14.5122C43.5043 13.8668 43.4954 13.2213 43.5161 12.5773C43.5279 12.2199 43.4112 12.0958 43.0449 12.1017C41.847 12.1209 40.6491 12.1091 39.4527 12.1091C33.0778 12.1091 26.7029 12.1091 20.3279 12.1091H19.6411V50.6172C21.483 51.0027 22.6971 52.0396 23.155 53.88C23.1993 54.0572 23.2229 54.2418 23.2333 54.425C23.282 55.2182 23.09 55.4294 22.3086 55.4294C17.5732 55.4309 12.8378 55.4294 8.1024 55.4294C7.31661 55.4294 7.11573 55.2123 7.16743 54.4339C7.29298 52.5152 8.63413 51.1002 10.8453 50.6039L10.8438 50.5994ZM37.3553 44.5096H57.616V35.1835H37.3553V44.5096ZM7.39341 10.7783C7.66371 10.7783 7.90004 10.7783 8.13489 10.7783C20.6056 10.7783 33.0763 10.7783 45.547 10.7783C45.7316 10.7783 45.9163 10.7694 46.0994 10.7812C46.5233 10.8078 46.8143 11.0101 46.8055 11.4621C46.7951 11.9126 46.5056 12.1046 46.0714 12.1032C45.6755 12.1032 45.2811 12.1032 44.8838 12.1032V14.047H50.2721V12.1032C49.7079 12.1032 49.1938 12.1032 48.6798 12.1032C48.2441 12.1032 47.959 11.9052 47.9546 11.4547C47.9502 11.0013 48.2456 10.7989 48.668 10.7842C49.0905 10.7694 49.5158 10.7797 49.9383 10.7797C50.7403 10.7797 51.5438 10.7797 52.3355 10.7797V7.58488H7.39341V10.7797V10.7783ZM56.4432 33.7921C53.3872 31.2974 50.4538 28.9031 47.4938 26.4867C44.5367 28.9016 41.6003 31.2989 38.5473 33.7921H56.4432ZM19.6293 6.20827H43.711C43.714 6.18611 43.7155 6.16396 43.7184 6.1418C35.6981 4.91733 27.6762 3.69434 19.6293 2.46691V6.20975V6.20827ZM8.60459 54.0764H21.8183C21.7695 53.9066 21.7474 53.7633 21.6883 53.6362C21.1388 52.4561 20.1802 51.9214 18.9085 51.9184C16.4433 51.9111 13.9766 51.914 11.5114 51.9184C11.2367 51.9184 10.959 51.9495 10.6902 52.0012C9.6533 52.205 8.8099 53.038 8.60607 54.0749L8.60459 54.0764ZM18.2349 50.561V46.3455C16.2646 47.251 14.3488 48.1283 12.4405 49.019C12.3341 49.0692 12.2175 49.2243 12.2101 49.338C12.182 49.7354 12.1997 50.1357 12.1997 50.561H18.2364H18.2349ZM12.2529 12.1298C12.1702 12.758 12.3878 13.1917 12.9058 13.431C13.8584 13.8697 14.8111 14.3069 15.7638 14.7441C16.5777 15.1178 17.3901 15.49 18.229 15.8755V12.1298H12.2529ZM18.2453 44.192V39.2011C16.4448 40.0282 14.6915 40.8347 12.8201 41.6943C14.6841 42.5525 16.4374 43.359 18.2453 44.1905V44.192ZM18.2556 18.0734C16.4256 18.9138 14.6826 19.7159 12.8304 20.5666C14.6915 21.4219 16.4492 22.2298 18.2556 23.0599V18.0734ZM18.2556 32.1172C16.4507 32.9458 14.724 33.7389 12.9102 34.572C14.7314 35.408 16.464 36.2027 18.2556 37.0254V32.1172ZM12.2234 19.3865C13.987 18.5741 15.6634 17.8016 17.4462 16.9819C15.6545 16.1591 13.9648 15.3837 12.2234 14.5846V19.3865ZM17.4299 38.1125C15.6383 37.2898 13.95 36.5143 12.2248 35.7226V40.5053C13.9574 39.7092 15.6339 38.9382 17.4299 38.1125ZM17.4019 24.1352C15.6073 23.311 13.9426 22.5459 12.2455 21.766V26.5118C13.9678 25.7171 15.6206 24.955 17.4019 24.1337V24.1352ZM12.247 28.6845V33.4199C13.9737 32.6253 15.6368 31.8587 17.393 31.0507C15.6339 30.2413 13.9618 29.4732 12.247 28.6845ZM17.3915 45.2643C15.5881 44.4357 13.9293 43.675 12.247 42.9026V47.635C13.9633 46.8433 15.6102 46.0856 17.3915 45.2643ZM13.0682 27.5989C14.8451 28.4157 16.5216 29.1837 18.2394 29.974V25.2164C16.5083 26.014 14.8318 26.7865 13.0682 27.6003V27.5989ZM12.2056 5.60711C13.7477 4.52591 15.2262 3.48903 16.7786 2.39897H12.2056V5.60711ZM13.6886 6.19202H18.2172V3.01342C16.6973 4.08132 15.2454 5.10048 13.6886 6.19202ZM10.8216 6.20827V3.43438C9.93246 4.39002 9.12156 5.26148 8.24272 6.20827H10.8216Z" fill="black"/>
<path d="M37.3553 44.5095V35.1835H57.616V44.5095H37.3553ZM40.1957 39.8362C40.1957 40.424 40.1868 41.0119 40.1986 41.5983C40.209 42.1448 40.4512 42.4373 40.8722 42.4151C41.364 42.3885 41.5191 42.0636 41.5206 41.6249C41.5206 40.4314 41.5221 39.238 41.5206 38.0445C41.5206 37.6058 41.364 37.2824 40.8722 37.2558C40.4512 37.2336 40.209 37.5261 40.1986 38.0726C40.1883 38.6604 40.1957 39.2483 40.1957 39.8347V39.8362ZM44.6194 39.7919C44.6194 40.4167 44.615 41.04 44.6209 41.6648C44.6253 42.1123 44.8174 42.424 45.3048 42.4121C45.7627 42.4003 45.9384 42.0901 45.9399 41.6707C45.9458 40.4595 45.9443 39.2468 45.9414 38.0357C45.9414 37.594 45.7715 37.2617 45.2826 37.2602C44.7937 37.2587 44.6209 37.5866 44.618 38.0297C44.615 38.6176 44.618 39.2055 44.618 39.7919H44.6194ZM49.0417 39.8081C49.0417 40.4137 49.0417 41.0193 49.0417 41.6264C49.0417 42.065 49.1983 42.4033 49.6901 42.4121C50.1776 42.421 50.3637 42.099 50.3651 41.6544C50.3696 40.4432 50.3696 39.2306 50.3651 38.0194C50.3637 37.5748 50.179 37.2528 49.6916 37.2617C49.2012 37.2705 49.0447 37.6088 49.0432 38.0475C49.0432 38.6353 49.0432 39.2232 49.0432 39.8096L49.0417 39.8081ZM53.4655 39.8834C53.4655 40.489 53.4581 41.0961 53.4684 41.7017C53.4758 42.1285 53.6796 42.4166 54.1331 42.4136C54.588 42.4092 54.783 42.1123 54.7859 41.6884C54.7933 40.458 54.7919 39.2276 54.7859 37.9972C54.7845 37.5778 54.6043 37.2691 54.1464 37.2602C53.659 37.2499 53.4699 37.5645 53.4655 38.0105C53.4596 38.6353 53.464 39.2586 53.4655 39.8834Z" fill="#FF7637"/>
<path d="M56.4432 33.7922H38.5473C41.6003 31.2989 44.5367 28.9017 47.4938 26.4867C50.4538 28.9031 53.3872 31.2974 56.4432 33.7922Z" fill="#FF7637"/>
<path d="M40.1957 39.8361C40.1957 39.2482 40.1868 38.6604 40.1986 38.074C40.209 37.5275 40.4512 37.2335 40.8722 37.2572C41.364 37.2838 41.5206 37.6087 41.5206 38.0459C41.5221 39.2394 41.5221 40.4328 41.5206 41.6263C41.5206 42.065 41.364 42.3884 40.8722 42.4165C40.4512 42.4401 40.209 42.1462 40.1986 41.5997C40.1868 41.0118 40.1957 40.424 40.1957 39.8376V39.8361Z" fill="black"/>
<path d="M44.618 39.7918C44.618 39.2039 44.615 38.6161 44.618 38.0297C44.6209 37.5866 44.7937 37.2587 45.2826 37.2601C45.7715 37.2616 45.9399 37.5939 45.9414 38.0356C45.9429 39.2468 45.9458 40.4594 45.9399 41.6706C45.9384 42.0901 45.7627 42.4003 45.3048 42.4121C44.8174 42.4239 44.6253 42.1122 44.6209 41.6647C44.615 41.0399 44.6194 40.4166 44.6194 39.7918H44.618Z" fill="black"/>
<path d="M49.0402 39.8081C49.0402 39.2202 49.0402 38.6324 49.0402 38.046C49.0402 37.6073 49.1968 37.2691 49.6887 37.2602C50.1776 37.2513 50.3607 37.5733 50.3622 38.0179C50.3666 39.2291 50.3666 40.4417 50.3622 41.6529C50.3607 42.0975 50.1761 42.4195 49.6872 42.4106C49.1953 42.4018 49.0402 42.0635 49.0388 41.6249C49.0373 41.0193 49.0388 40.4137 49.0388 39.8066L49.0402 39.8081Z" fill="black"/>
<path d="M53.464 39.8848C53.464 39.26 53.4596 38.6367 53.464 38.0119C53.4684 37.5659 53.6575 37.2513 54.1449 37.2616C54.6028 37.2705 54.7815 37.5792 54.7845 37.9986C54.7904 39.229 54.7904 40.4594 54.7845 41.6898C54.7815 42.1122 54.588 42.4106 54.1316 42.415C53.6782 42.4195 53.4743 42.1299 53.4669 41.7031C53.4566 41.0975 53.464 40.4919 53.464 39.8848Z" fill="black"/>
<path d="M33.5992 9.87436C31.3895 9.87436 29.1798 9.87436 26.9702 9.87436C26.8048 9.87436 26.5891 9.92901 26.4842 9.8463C26.2745 9.68235 25.9747 9.43125 25.9879 9.2348C26.0042 8.99995 26.2878 8.76215 26.499 8.57308C26.5832 8.49776 26.7826 8.54945 26.9303 8.54945C31.4058 8.54945 35.8797 8.54945 40.3552 8.54945C40.5029 8.54945 40.6993 8.49775 40.7865 8.57161C41.0021 8.75624 41.3153 8.99995 41.3123 9.21855C41.3094 9.43716 40.9962 9.68087 40.7732 9.85368C40.6668 9.93492 40.4527 9.87584 40.2872 9.87584C38.0584 9.87584 35.831 9.87584 33.6021 9.87584L33.5992 9.87436Z" fill="black"/>
<path d="M42.977 8.54053C43.1409 8.54939 43.3123 8.53019 43.4659 8.5745C43.8263 8.67789 44.036 8.93785 43.9636 9.31155C43.8528 9.88169 43.395 9.87873 42.9356 9.88021C42.4954 9.88021 42.1114 9.80636 42.0316 9.29973C41.9711 8.92013 42.1779 8.67051 42.5412 8.57155C42.6786 8.53462 42.8307 8.55087 42.977 8.542V8.54053Z" fill="black"/>
</g>
</svg>
