<svg width="64" height="56" viewBox="0 0 64 56" fill="none" xmlns="http://www.w3.org/2000/svg">
<mask id="mask0_4_52" style="mask-type:alpha" maskUnits="userSpaceOnUse" x="0" y="0" width="64" height="56">
<rect width="64" height="56" fill="#D9D9D9"/>
</mask>
<g mask="url(#mask0_4_52)">
<path d="M0 31.5903C0.578154 30.9972 1.17963 30.4257 1.72113 29.8009C1.92774 29.5626 2.10601 29.2077 2.10935 28.9045C2.141 26.5569 2.12601 24.2076 2.12767 21.86C2.12767 20.892 2.42758 20.5871 3.38395 20.5854C7.12446 20.5821 10.865 20.5854 14.6071 20.5854C14.8537 20.5854 15.102 20.5854 15.4236 20.5854C15.4352 20.3321 15.4552 20.1155 15.4552 19.8973C15.4569 17.1548 15.4552 14.4106 15.4569 11.6682C15.4569 10.6918 15.7468 10.3969 16.7082 10.3952C20.9269 10.3935 25.1455 10.3952 29.3642 10.3952C29.5292 10.3952 29.7041 10.3819 29.8591 10.4269C30.3306 10.5618 30.6039 10.8717 30.5755 11.3832C30.5455 11.8914 30.2556 12.2013 29.7608 12.2463C29.2943 12.2896 28.8211 12.2563 28.2729 12.2563C28.3829 12.5296 28.4529 12.7178 28.5362 12.9011C30.2506 16.7482 31.9718 20.5921 33.6712 24.4475C33.8562 24.8674 34.0695 25.049 34.5426 25.024C35.3474 24.9824 36.1555 25.0124 36.9985 25.0124V21.3318C36.6387 21.3318 36.2738 21.3468 35.9122 21.3285C35.2108 21.2935 34.8809 20.9786 34.8759 20.2738C34.8625 17.6763 34.8625 15.0788 34.8759 12.4812C34.8792 11.7748 35.2024 11.4799 35.9255 11.4466C36.2738 11.4299 36.622 11.4432 37.0385 11.4432C37.0385 10.945 36.9786 10.5018 37.0585 10.0853C37.1185 9.77374 37.2868 9.40719 37.5284 9.22058C38.0516 8.81737 38.6464 8.5058 39.2229 8.1759C39.771 7.86266 40.3292 7.97929 40.5891 8.43415C40.849 8.88735 40.6741 9.41052 40.1392 9.75208C39.9126 9.89703 39.6877 10.0586 39.4411 10.1603C38.8613 10.4002 38.7747 10.8234 38.9563 11.4449C39.3262 11.4449 39.716 11.4266 40.1043 11.4482C40.769 11.4865 41.1073 11.8014 41.1106 12.4696C41.1273 15.0671 41.1289 17.6646 41.1106 20.2622C41.1056 20.9386 40.6791 21.3018 39.9826 21.3268C39.6527 21.3385 39.3212 21.3285 38.9496 21.3285V25.009C39.9426 25.009 40.914 25.0273 41.8854 25.0024C42.4219 24.9874 42.8301 25.1473 43.21 25.5422C44.5479 26.9368 45.9341 28.2847 47.257 29.6942C47.5236 29.9791 47.7019 30.4457 47.7236 30.8389C47.7869 31.9319 47.7452 33.0299 47.7452 34.1962C48.5483 34.1962 49.2914 34.2195 50.0312 34.1762C50.1745 34.1679 50.3744 33.9246 50.4244 33.7546C50.7576 32.5983 51.0259 31.4237 51.3841 30.2757C51.4907 29.9375 51.764 29.5693 52.0639 29.3893C53.7367 28.3863 55.4412 27.4333 57.1373 26.4702C57.977 25.9937 58.5235 26.242 58.7035 27.205C59.345 30.6106 59.9748 34.0196 60.6096 37.4268C60.9411 39.2013 61.2594 40.9791 61.6226 42.7485C61.6676 42.9651 61.9225 43.1851 62.1358 43.305C62.3807 43.445 62.6889 43.4716 62.9655 43.5549C63.6486 43.7615 63.9652 44.1981 63.8086 44.7096C63.642 45.2528 63.1638 45.4627 62.4923 45.2811C60.3097 44.6913 58.127 44.0981 55.9443 43.51C55.1429 43.295 54.3432 43.0701 53.5334 42.8885C52.9903 42.7669 52.6804 42.4769 52.4937 41.9471C51.8523 40.1277 51.1742 38.3216 50.5094 36.5105C50.4594 36.3755 50.3977 36.2439 50.3344 36.0923H47.7419C47.7419 36.7454 47.7419 37.4002 47.7419 38.055C47.7419 38.3666 47.7502 38.6781 47.7386 38.9897C47.7102 39.7878 47.3837 40.1227 46.5856 40.136C45.6525 40.151 44.7195 40.1393 43.7115 40.1393C43.6831 43.0918 42.5235 45.4377 40.1059 47.0939C38.5764 48.1419 36.8586 48.5667 35.0192 48.4084C32.8998 48.2268 31.1187 47.3238 29.6925 45.7426C28.2812 44.1781 27.6264 42.3203 27.6398 40.1843H21.2184C20.8169 42.9735 19.519 45.2328 17.1797 46.8389C15.4219 48.0452 13.4608 48.5584 11.3398 48.4151C7.53267 48.1585 3.47892 45.3044 2.77414 40.0644C2.29929 40.0644 1.80611 40.0377 1.31793 40.071C0.746436 40.111 0.303239 39.9394 0 39.4446C0 36.8287 0 34.2095 0 31.5903ZM2.77914 38.1733C3.69719 32.4334 8.31409 30.0241 11.7414 29.9208C15.8368 29.7975 20.537 32.7899 21.2618 38.2716C23.2478 38.2716 25.2405 38.2566 27.2332 38.2816C27.7364 38.2882 27.9813 38.1616 28.1696 37.6518C29.6358 33.6863 33.8995 31.5253 37.9116 32.7233C40.5125 33.4997 42.2536 35.2342 43.2366 37.7517C43.3099 37.9417 43.4665 38.2333 43.5998 38.2416C44.3379 38.2899 45.081 38.2649 45.8308 38.2649C45.8491 38.0783 45.8691 37.9783 45.8691 37.8767C45.8708 35.6741 45.8825 33.4714 45.8558 31.2687C45.8525 31.0188 45.6925 30.7189 45.5126 30.5323C44.4579 29.441 43.3649 28.3896 42.3119 27.2966C41.9837 26.9568 41.6521 26.8118 41.1756 26.8185C38.5181 26.8518 35.8589 26.8601 33.2014 26.8651C29.4409 26.8718 25.6787 26.8834 21.9182 26.8451C21.49 26.8401 20.9752 26.6319 20.6553 26.3453C19.5106 25.3189 18.396 24.2543 17.3463 23.1329C16.8065 22.5548 16.2083 22.3898 15.4785 22.3915C11.883 22.3998 8.28743 22.3948 4.69188 22.3948H3.9971C3.9971 24.7991 3.98543 27.1034 4.00543 29.4093C4.01043 29.9492 3.90213 30.4157 3.4506 30.7206C2.08935 31.637 1.66448 32.8882 1.84443 34.4994C1.97772 35.704 1.87109 36.937 1.87109 38.1766H2.77914V38.1733ZM12.0329 46.5973C16.2416 46.579 19.434 43.2534 19.4073 38.913C19.384 35.0426 15.9584 31.7453 11.988 31.7469C8.614 31.7469 4.31866 34.4011 4.61024 39.7961C4.80851 43.4583 8.03418 46.6307 12.0329 46.5973ZM31.8068 24.9924C31.8068 24.8907 31.8201 24.8441 31.8052 24.8107C30.0107 20.727 28.2163 16.6449 26.4118 12.5662C26.3568 12.4412 26.1919 12.283 26.0736 12.2796C24.9606 12.258 23.8493 12.2663 22.7496 12.2663V24.9924H31.8068ZM35.7073 46.5957C39.1012 46.5807 41.8937 43.8349 41.852 40.4476C41.8054 36.5438 38.7497 34.1812 35.674 34.1945C32.5949 34.2078 29.5225 36.6054 29.4859 40.4576C29.4542 43.8665 32.2817 46.6107 35.7073 46.594V46.5957ZM57.1606 28.5829C55.7961 29.371 54.5198 30.0991 53.2585 30.8522C53.1252 30.9322 53.0419 31.1438 52.9969 31.3104C52.6937 32.4317 52.3921 33.553 52.1289 34.6844C52.0639 34.9659 52.0739 35.3042 52.1672 35.5774C52.6987 37.1486 53.3052 38.6948 53.8033 40.276C54.0099 40.9291 54.3415 41.239 54.998 41.3973C56.5608 41.7738 58.1053 42.227 59.7398 42.6719C58.8768 37.955 58.0304 33.3298 57.1606 28.5829ZM17.3263 12.2963C17.3263 12.5612 17.3263 12.7845 17.3263 13.0077C17.3263 15.0438 17.3896 17.0848 17.3013 19.1175C17.2547 20.2022 17.5279 20.9936 18.3826 21.6867C19.2224 22.3682 19.9488 23.1913 20.8019 24.026V12.2963H17.328H17.3263ZM36.7953 13.3093V19.4441H39.2445V13.3093H36.7953Z" fill="black"/>
<path d="M12.0229 34.6893C9.51205 34.6827 7.49101 36.6837 7.48435 39.183C7.47768 41.6739 9.49872 43.7049 11.993 43.7149C14.4888 43.7232 16.5232 41.7072 16.5332 39.2129C16.5432 36.7137 14.5322 34.696 12.0229 34.6893Z" fill="#FF7637"/>
<path d="M35.6523 36.4088C33.4413 36.4288 31.6685 38.2266 31.6852 40.4342C31.7002 42.6352 33.523 44.433 35.7123 44.4097C37.9033 44.3847 39.6794 42.5736 39.6761 40.3659C39.6727 38.1649 37.8683 36.3905 35.6523 36.4105V36.4088Z" fill="#FF7637"/>
</g>
</svg>
