<svg width="64" height="56" viewBox="0 0 64 56" fill="none" xmlns="http://www.w3.org/2000/svg">
<mask id="mask0_11_167" style="mask-type:alpha" maskUnits="userSpaceOnUse" x="0" y="0" width="64" height="56">
<rect width="64" height="56" fill="#D9D9D9"/>
</mask>
<g mask="url(#mask0_11_167)">
<path d="M25.1768 28.3846C25.1768 25.5833 25.1768 22.8784 25.1768 20.1753C25.1768 19.6814 25.175 19.1876 25.1768 18.6938C25.1836 17.7009 25.5364 17.3534 26.5481 17.3465C27.1658 17.3413 27.7836 17.3465 28.4753 17.3465C28.4753 16.1695 28.5062 15.0563 28.4649 13.9464C28.4374 13.2272 28.6972 12.7592 29.2874 12.3376C33.5461 9.29205 37.7858 6.21722 42.0238 3.14239C42.2561 2.97376 42.4677 2.73803 42.6037 2.48682C43.3969 1.01565 44.6392 0.24823 46.279 0.349749C47.9222 0.451268 49.051 1.38215 49.6515 2.93247C51.3704 7.36834 53.0911 11.8042 54.8169 16.2384C56.3638 20.2131 57.8866 24.1965 59.4817 28.1523C60.163 29.8402 61.0027 31.4628 61.765 33.1181C62.1728 34.0043 62.0764 34.3449 61.266 34.9024C59.3027 36.2514 57.3257 37.5815 55.3796 38.9546C54.7412 39.4054 54.2095 39.402 53.5643 38.9718C52.0828 37.9841 50.5635 37.055 49.0613 36.0966C48.0995 35.4823 48.0771 34.739 48.9994 34.0679C50.665 32.8583 52.334 31.6555 54.0323 30.4287C50.8112 23.4807 47.6056 16.5636 44.3673 9.57768C42.9874 10.5739 41.6556 11.5341 40.3238 12.4942C39.9229 12.7833 39.5546 13.1377 39.1159 13.3459C37.8563 13.9447 37.4365 14.9135 37.6602 16.247C37.7152 16.5773 37.6688 16.9266 37.6688 17.3551C38.8182 17.1331 39.226 17.8919 39.6596 18.7058C41.2323 21.6585 42.8532 24.5853 44.4241 27.538C44.634 27.9337 44.7596 28.4259 44.7648 28.8732C44.7923 32.3077 44.7803 35.7438 44.7786 39.1783C44.7786 40.2795 44.4637 40.5978 43.3625 40.6013C42.01 40.6064 40.6576 40.6013 39.3034 40.6013C39.0728 40.6013 38.844 40.6013 38.5756 40.6013V42.2961C39.5116 42.2961 40.4287 42.2634 41.3441 42.3013C44.2933 42.4235 46.7591 44.5313 47.351 47.4031C48.1562 51.3124 45.3017 54.9912 41.3132 55.1822C41.1635 55.1891 41.012 55.1942 40.8623 55.1942C30.1254 55.1942 19.3884 55.2011 8.65148 55.1908C5.75044 55.1874 3.36731 53.551 2.40546 50.9631C0.891276 46.8903 3.79748 42.4923 8.14216 42.3013C9.05928 42.2617 9.97983 42.2961 10.9417 42.2961V40.6357C10.7128 40.6236 10.4857 40.6013 10.2586 40.6013C8.86312 40.5978 7.46766 40.6099 6.07048 40.5961C5.13616 40.5858 4.79547 40.2313 4.79375 39.2953C4.7903 36.1172 4.7903 32.9409 4.79375 29.7628C4.79375 28.6891 5.0983 28.3828 6.16512 28.3811C12.2201 28.3794 18.2769 28.3811 24.3319 28.3811H25.1768V28.3846ZM42.6673 38.49C42.688 38.3833 42.7121 38.3214 42.7121 38.2595C42.7155 35.1691 42.7207 32.0805 42.7086 28.9902C42.7086 28.7493 42.6054 28.4895 42.4884 28.2727C40.9845 25.4801 39.46 22.6995 37.9647 19.9017C37.7651 19.5266 37.5466 19.3924 37.1199 19.3958C34.3737 19.4164 31.6275 19.4061 28.8796 19.4061C28.3497 19.4061 27.8214 19.4061 27.2811 19.4061V38.49H42.6673ZM24.7053 53.1381C30.0497 53.1381 35.3941 53.1329 40.7385 53.1415C42.0668 53.1432 43.2489 52.7767 44.1712 51.8028C45.4393 50.4659 45.7869 48.876 45.1262 47.1639C44.4568 45.4277 43.125 44.4504 41.2478 44.3695C39.8988 44.311 38.5446 44.3695 37.1939 44.3695C28.9089 44.3695 20.6239 44.3695 12.3389 44.3695C10.9021 44.3695 9.46019 44.3042 8.02688 44.3833C5.59214 44.5158 3.72177 46.9351 4.11752 49.3405C4.49607 51.6462 6.25803 53.1294 8.67213 53.1346C14.0165 53.1449 19.3609 53.1381 24.7053 53.1381ZM6.87919 38.4745H25.1251V30.4941H6.87919V38.4745ZM55.7392 29.1898C56.0627 28.9593 56.3242 28.727 56.6236 28.5704C57.1433 28.2985 57.1897 27.9785 56.9764 27.4365C54.521 21.1767 52.0914 14.9049 49.6567 8.63648C48.9976 6.9399 48.3507 5.23816 47.6779 3.54675C47.3527 2.73115 46.5732 2.28722 45.7886 2.40939C44.973 2.53672 44.3381 3.18541 44.3295 4.04058C44.3243 4.44837 44.4775 4.88198 44.6512 5.26225C47.8844 12.2636 51.1296 19.2564 54.3747 26.2526C54.8238 27.2214 55.2746 28.1901 55.7409 29.1898H55.7392ZM35.6109 17.2983C35.6109 16.1988 35.6298 15.1698 35.604 14.1426C35.5902 13.592 35.7967 13.2066 36.2389 12.8951C37.378 12.0916 38.505 11.2708 39.6338 10.4535C40.9157 9.52606 42.1941 8.5969 43.4829 7.66086C43.1233 6.89172 42.7929 6.17936 42.466 5.48077C42.3696 5.49626 42.3197 5.48938 42.2905 5.51003C38.4637 8.26997 34.6387 11.0316 30.8188 13.8002C30.6949 13.8897 30.559 14.0617 30.5556 14.1977C30.5332 15.2197 30.5435 16.2435 30.5435 17.2966H35.6109V17.2983ZM36.4488 40.6735H13.0839V42.1688H36.4454V40.6735H36.4488ZM58.0707 30.0588C55.7513 31.733 53.5058 33.3538 51.207 35.0143C52.2669 35.6871 53.2219 36.3013 54.1906 36.8967C54.3076 36.969 54.5382 36.9965 54.6397 36.9277C56.3105 35.8041 57.9692 34.6615 59.6675 33.4967C59.1358 32.349 58.6231 31.246 58.0724 30.0588H58.0707Z" fill="black"/>
<path d="M40.2223 26.7964C39.2965 25.1308 38.3467 23.4772 37.4245 21.8099C37.144 21.3023 36.7431 21.0769 36.1735 21.0786C34.0279 21.0855 31.8839 21.0752 29.7382 21.0855C28.8504 21.0889 28.4839 21.452 28.4787 22.3364C28.4667 23.9659 28.4684 25.5954 28.477 27.2248C28.4822 28.1867 28.8349 28.5239 29.8157 28.5257C31.3591 28.5308 32.9025 28.5274 34.4477 28.5274C35.9929 28.5274 37.6223 28.536 39.2088 28.5239C40.298 28.5171 40.7505 27.7479 40.2223 26.7964Z" fill="#FF7637"/>
<path d="M19.5381 44.7601C21.7389 44.7601 23.5043 46.5187 23.5094 48.7142C23.5146 50.9304 21.7027 52.744 19.5089 52.7182C17.3305 52.6924 15.5393 50.8805 15.5548 48.7177C15.5703 46.5307 17.3529 44.7601 19.5381 44.7619V44.7601ZM21.4463 48.771C21.4653 47.7007 20.6273 46.8335 19.5639 46.8215C18.5109 46.8094 17.6247 47.6749 17.6161 48.7228C17.6093 49.7329 18.461 50.6138 19.4813 50.6534C20.5137 50.6947 21.4274 49.8189 21.4463 48.771Z" fill="#FF7637"/>
<path d="M25.9373 48.7348C25.9373 46.5375 27.6941 44.7686 29.8879 44.76C32.1041 44.7514 33.9177 46.5633 33.8919 48.7606C33.8661 50.939 32.056 52.7319 29.8931 52.7198C27.7096 52.7078 25.9373 50.9217 25.9356 48.7348H25.9373ZM27.9986 48.6952C27.9814 49.7517 28.8383 50.6413 29.8879 50.6568C30.9169 50.6705 31.8271 49.7706 31.8306 48.7348C31.834 47.7179 30.9806 46.8455 29.9585 46.8214C28.8899 46.7973 28.0158 47.6336 27.9986 48.6935V48.6952Z" fill="#FF7637"/>
<path d="M44.2486 48.7263C44.2486 50.915 42.4832 52.6976 40.2962 52.7182C38.1161 52.7389 36.2647 50.8857 36.2871 48.7039C36.3094 46.5187 38.1007 44.7533 40.2859 44.7602C42.4815 44.767 44.2486 46.5359 44.2486 48.7263ZM40.2446 46.8215C39.1967 46.8353 38.3175 47.7421 38.3502 48.7762C38.3811 49.7914 39.2638 50.6534 40.2721 50.6552C41.3131 50.6552 42.1941 49.7656 42.1872 48.716C42.1804 47.6543 41.3131 46.8077 40.2446 46.8215Z" fill="#FF7637"/>
<path d="M5.1981 48.7279C5.20155 46.534 6.96695 44.7669 9.1608 44.7617C11.3719 44.7549 13.1906 46.577 13.1613 48.7692C13.1321 50.9458 11.3134 52.7387 9.15392 52.7198C6.96867 52.7009 5.19638 50.9114 5.19983 48.7296L5.1981 48.7279ZM9.15392 46.8231C8.09226 46.8317 7.24226 47.7041 7.25946 48.7657C7.27495 49.7844 8.14044 50.6464 9.15908 50.6567C10.188 50.6671 11.1 49.762 11.0983 48.7296C11.0983 47.6869 10.207 46.8128 9.15392 46.8231Z" fill="#FF7637"/>
<path d="M46.0089 3.03225C46.5595 3.0288 47.043 3.50027 47.0481 4.04916C47.0533 4.59633 46.5767 5.07812 46.0261 5.08328C45.46 5.08844 45.0091 4.63935 45.004 4.06637C45.0005 3.49338 45.4428 3.03569 46.0089 3.03225Z" fill="black"/>
</g>
</svg>
