<svg width="64" height="56" viewBox="0 0 64 56" fill="none" xmlns="http://www.w3.org/2000/svg">
<mask id="mask0_5_64" style="mask-type:alpha" maskUnits="userSpaceOnUse" x="0" y="0" width="64" height="56">
<rect width="64" height="56" fill="#D9D9D9"/>
</mask>
<g mask="url(#mask0_5_64)">
<path d="M1.20001 1.02167C2.78099 1.03506 4.36346 1.05142 5.94443 1.06034C6.99297 1.06629 8.0415 1.06034 9.09152 1.06183C11.4414 1.06778 13.1637 2.09698 14.2851 4.17768C17.9498 10.9805 21.6323 17.7744 25.3088 24.5727C28.1659 29.8585 31.0274 35.1414 33.8741 40.4331C34.0615 40.7811 34.2875 40.9462 34.6712 41.0176C35.3033 41.1336 35.922 41.3151 36.5988 41.4801C36.4842 41.263 36.3905 41.0756 36.2879 40.8942C30.8236 31.1778 25.3579 21.4614 19.8936 11.745C19.2511 10.6042 19.3656 10.1982 20.5034 9.55866C25.9454 6.49635 31.3858 3.43404 36.8278 0.37322C37.9299 -0.246975 38.3537 -0.126505 38.9754 0.978543C45.2651 12.1584 51.5533 23.3398 57.8431 34.5197C58.4781 35.6485 58.3591 36.0769 57.2333 36.7104C51.9281 39.6954 46.6215 42.6804 41.3149 45.6653C41.1082 45.7814 40.9044 45.9003 40.6694 46.0342C40.784 46.5741 40.8955 47.1065 41.0189 47.691C47.676 44.0338 54.3048 40.3915 60.9678 36.7313C61.3233 37.3797 61.6535 37.9806 62 38.6112C61.2222 39.0395 60.48 39.45 59.7364 39.859C53.6043 43.2292 47.4737 46.6008 41.3372 49.9621C40.9684 50.1644 40.7542 50.4127 40.6159 50.8217C39.5168 54.061 36.3563 56.2012 33.0932 55.9499C29.4806 55.6718 26.6875 53.2118 26.0852 49.7107C25.9454 48.9002 25.9588 48.0569 25.9573 47.23C25.9469 41.7687 25.9573 36.3059 25.9394 30.8446C25.9394 30.4891 25.8294 30.098 25.6598 29.7827C21.2441 21.5878 16.8075 13.4048 12.3918 5.20985C11.6705 3.8713 10.6011 3.21839 9.08854 3.22434C6.63453 3.23623 4.18052 3.22582 1.72651 3.23028C1.55101 3.23028 1.37551 3.263 1.20001 3.27936C1.20001 2.5268 1.20001 1.77573 1.20001 1.02316L1.20001 1.02167ZM31.7339 28.4084C34.6177 33.5366 37.4718 38.6112 40.3556 43.7378C45.4957 40.8451 50.5866 37.9821 55.7029 35.1027C52.8146 29.9686 49.9575 24.8925 47.0781 19.7733C45.6607 20.572 44.2791 21.3513 42.8766 22.1425C43.5756 23.3547 44.2434 24.4969 44.8933 25.648C45.2964 26.3619 45.2161 26.9093 44.578 27.293C43.0357 28.2181 41.4741 29.1119 39.905 29.9894C39.3725 30.2869 38.8594 30.1203 38.5054 29.6161C38.3359 29.3737 38.1961 29.1104 38.0488 28.8531C37.4703 27.8522 36.8917 26.8513 36.3058 25.8354C34.7679 26.701 33.2896 27.5339 31.7339 28.4084ZM33.1869 4.89455C33.8919 6.11561 34.5716 7.27122 35.229 8.44022C35.6365 9.16453 35.4878 9.7297 34.7753 10.1476C33.3267 10.9983 31.8722 11.8372 30.4117 12.6656C29.6725 13.085 29.149 12.9407 28.7162 12.2149C28.2209 11.3836 27.745 10.5388 27.2586 9.70293C27.0445 9.33557 26.8244 8.97267 26.6013 8.59639C25.0471 9.4724 23.5583 10.3127 22.0368 11.1709C24.9266 16.3064 27.7807 21.3796 30.6586 26.4943C35.806 23.5971 40.8985 20.7311 46.0058 17.8577C43.1086 12.7087 40.2515 7.63263 37.3825 2.53275C35.9786 3.3225 34.6207 4.08696 33.1869 4.89306V4.89455ZM28.1406 48.4019C28.0677 51.3021 30.4607 53.7383 33.4457 53.8037C36.3251 53.8662 38.7702 51.4925 38.855 48.5536C38.9382 45.6059 36.5512 43.1251 33.5692 43.0611C30.6184 42.9987 28.2179 45.3605 28.1421 48.4019H28.1406ZM31.6967 40.9179C30.5842 38.864 29.4211 36.7134 28.2581 34.5628C28.2269 34.5762 28.1956 34.5881 28.1629 34.6015V42.8856C29.3066 42.2491 30.4622 41.6066 31.6967 40.9194V40.9179ZM38.1946 24.8003C38.7568 25.7685 39.2759 26.6653 39.8068 27.5815C40.784 27.0163 41.6808 26.4973 42.5984 25.9663C42.0422 25.0041 41.5306 24.1191 40.9996 23.2015C40.0537 23.7399 39.1524 24.253 38.1946 24.8003ZM31.3144 5.96242C30.3492 6.51568 29.4375 7.03772 28.5139 7.56868C29.0746 8.53392 29.5937 9.42927 30.1306 10.3514C31.0988 9.79216 31.9971 9.27161 32.9162 8.73917C32.3749 7.80069 31.8647 6.91576 31.3144 5.96242Z" fill="black"/>
<path d="M38.1946 24.8003C39.1539 24.2545 40.0552 23.7399 40.9996 23.2015C41.5306 24.1191 42.0422 25.0041 42.5984 25.9663C41.6808 26.4973 40.7839 27.0163 39.8068 27.5815C39.2758 26.6654 38.7568 25.7685 38.1946 24.8003Z" fill="#FF7637"/>
<path d="M31.313 5.9624C31.8632 6.91575 32.3734 7.80068 32.9148 8.73915C31.9941 9.2716 31.0958 9.79066 30.1291 10.3514C29.5937 9.42925 29.0731 8.53391 28.5124 7.56866C29.4375 7.03919 30.3492 6.51567 31.313 5.9624Z" fill="#FF7637"/>
<path d="M33.532 45.2058C31.8038 45.1775 30.3328 46.586 30.2823 48.3157C30.2287 50.1316 31.6134 51.5981 33.4204 51.6412C35.1933 51.6829 36.6687 50.2819 36.7088 48.5165C36.749 46.7287 35.3152 45.234 33.532 45.2043V45.2058Z" fill="#FF7637"/>
</g>
</svg>
