<svg width="64" height="56" viewBox="0 0 64 56" fill="none" xmlns="http://www.w3.org/2000/svg">
<mask id="mask0_6_95" style="mask-type:alpha" maskUnits="userSpaceOnUse" x="0" y="0" width="64" height="56">
<rect width="64" height="56" fill="#D9D9D9"/>
</mask>
<g mask="url(#mask0_6_95)">
<path d="M56.7674 50.1938C55.705 53.6984 53.4553 55.5542 50.3517 55.531C47.323 55.5078 45.0412 53.5861 44.0768 50.2241H17.232C16.8541 52.0085 15.9521 53.4649 14.4101 54.481C13.2407 55.2511 11.9465 55.588 10.5507 55.5221C7.65569 55.3866 5.40421 53.4007 4.57885 50.1938C3.92284 50.1938 3.24187 50.1973 2.5609 50.1938C1.11162 50.1831 0.238125 49.3149 0.23456 47.8639C0.229212 45.238 0.232777 42.614 0.23456 39.9882C0.23456 38.7564 0.532261 38.4569 1.76228 38.448C1.93698 38.448 2.11168 38.448 2.36838 38.448C2.36838 37.5263 2.36838 36.6439 2.36838 35.7615C2.36838 34.4745 2.64825 34.1875 3.91928 34.1768C4.09219 34.1768 4.26511 34.1768 4.47011 34.1768V14.9528C4.1528 14.9528 3.83014 14.9653 3.50927 14.951C2.798 14.9207 2.38621 14.5321 2.37551 13.8244C2.35768 12.4446 2.35768 11.0648 2.37551 9.68686C2.38442 8.95063 2.80334 8.56202 3.56453 8.55132C4.56103 8.53706 5.5593 8.54776 6.63958 8.54776C6.63958 7.55483 6.66276 6.60646 6.63245 5.6581C6.60928 4.90226 6.8945 4.4156 7.70739 4.23555C7.70739 3.2658 7.70204 2.29247 7.70739 1.31915C7.71273 0.395746 8.08709 0.0106958 8.99267 0.00534792C10.2601 -0.00178264 11.5276 -0.00178264 12.7968 0.00534792C13.7434 0.0106958 14.1071 0.386833 14.1124 1.35837C14.1178 2.29247 14.1124 3.22658 14.1124 4.21594C15.0822 4.41203 15.2301 5.11083 15.1891 5.9665C15.1481 6.80434 15.1802 7.64396 15.1802 8.51567H23.7226C23.7226 7.61365 23.7226 6.71164 23.7226 5.80962C23.7226 4.76856 23.8331 4.60099 24.7904 4.19099C24.7904 3.22658 24.7833 2.24969 24.7922 1.27102C24.8011 0.399311 25.1844 0.0142611 26.0597 0.00713056C27.3503 -0.00178264 28.6391 -0.00178264 29.9298 0.00713056C30.7997 0.0124785 31.1848 0.401094 31.1937 1.27459C31.2026 2.25147 31.1954 3.23014 31.1954 4.19277C32.1492 4.59386 32.2615 4.76856 32.2632 5.81319C32.2632 6.69916 32.2632 7.58335 32.2632 8.54597C33.2633 8.54597 34.2117 8.54241 35.1618 8.54597C36.1672 8.54954 36.5291 8.90963 36.5327 9.90969C36.538 11.088 36.5345 12.2681 36.5327 13.4465C36.5327 14.6301 36.2154 14.9457 35.0335 14.9528C34.8552 14.9528 34.6787 14.9528 34.4488 14.9528V34.175C34.7375 34.175 35.0388 34.1679 35.3401 34.175C36.1227 34.1999 36.5166 34.5903 36.5273 35.3854C36.5398 36.3819 36.5309 37.3766 36.5309 38.4088H38.6665V37.6529C38.6665 32.0251 38.6665 26.3955 38.6665 20.7678C38.6665 19.5342 38.9713 19.224 40.1924 19.224C45.1963 19.224 50.202 19.2365 55.2058 19.2151C56.7478 19.2079 57.8192 19.8586 58.5394 21.2134C60.199 24.3312 61.8889 27.4348 63.5735 30.5402C64.062 31.4404 64.2973 32.3888 64.2955 33.4138C64.2866 37.8401 64.2937 42.2682 64.2902 46.6945C64.2902 48.8764 62.9799 50.1867 60.8069 50.1902C59.4538 50.1938 58.099 50.1902 56.7638 50.1902L56.7674 50.1938ZM6.66811 34.1269H32.2098V14.9902H6.66811V34.1269ZM40.8609 21.3774V48.0136H44.0946C44.9039 44.8548 47.1608 42.8654 50.0522 42.7299C51.4979 42.6621 52.8296 43.0187 54.0221 43.8405C55.5 44.8583 56.3699 46.2845 56.7407 48.0546C58.2185 48.0546 59.6624 48.0671 61.1046 48.0493C61.6608 48.0421 62.0387 47.7159 62.1278 47.174C62.1938 46.7747 62.1403 46.3558 62.1403 45.8976H59.0028V43.7513H62.1207V41.6496C60.7088 41.6496 59.3344 41.6603 57.96 41.646C56.6747 41.6318 55.7816 40.7422 55.7549 39.4676C55.7424 38.8669 55.7513 38.2661 55.7531 37.6672C55.7584 36.0771 56.5874 35.2481 58.1828 35.2446C59.4877 35.2428 60.7926 35.2446 62.1135 35.2446V33.109H61.2793C55.6533 33.109 50.029 33.109 44.403 33.109C43.271 33.109 42.9395 32.7756 42.9395 31.6365C42.9395 28.4563 42.9395 25.276 42.9395 22.0958V21.3774H40.8591H40.8609ZM2.39512 48.0243H4.58063C5.43274 44.2059 8.46501 42.7727 10.7236 42.721C13.87 42.6497 16.0876 44.4448 17.257 48.0065H38.6344V40.6228H2.39512V48.0225V48.0243ZM61.3042 30.9395C61.2597 30.8058 61.249 30.7416 61.2187 30.6846C59.6695 27.8127 58.1151 24.9445 56.5695 22.0709C56.2986 21.5664 55.8993 21.3507 55.327 21.3525C52.0612 21.3632 48.7954 21.356 45.5279 21.3596C45.3817 21.3596 45.2373 21.3988 45.1089 21.4166V30.9377H61.3042V30.9395ZM4.55924 10.6941V12.7726H34.3454V10.6941H4.55924ZM34.3703 36.3587H4.53607V38.4105H34.3703V36.3587ZM10.9144 44.8548C8.55592 44.8494 6.63424 46.7747 6.63958 49.1367C6.64493 51.4684 8.54523 53.3829 10.8698 53.3972C13.2336 53.4114 15.1659 51.5058 15.1784 49.1474C15.1927 46.7889 13.2746 44.8601 10.9144 44.8548ZM54.6835 49.1295C54.6906 46.7729 52.7654 44.8512 50.4016 44.8548C48.0717 44.8566 46.1589 46.7586 46.1447 49.0868C46.1304 51.4523 48.0396 53.3901 50.3909 53.3972C52.7529 53.4043 54.6764 51.4915 54.6835 49.1313V49.1295ZM13.0143 6.44424H8.8144V8.49784H13.0143V6.44424ZM30.1009 6.4585H25.8903V8.50676H30.1009V6.4585ZM62.1314 37.4265H57.9208V39.4748H62.1314V37.4265ZM9.87686 2.16769V4.23199H11.9287V2.16769H9.87686ZM26.9617 2.16947V4.2302H29.0099V2.16947H26.9617Z" fill="black"/>
<path d="M6.66811 34.1268V14.9902H32.2098V34.1268H6.66811ZM19.6707 19.6536C18.61 21.0654 17.5975 22.4149 16.5796 23.7625C16.2783 24.1619 16.1197 24.5754 16.3799 25.0567C16.6366 25.5309 17.0627 25.645 17.5618 25.6361C18.2357 25.6236 18.9113 25.6325 19.6956 25.6325C18.9148 26.9392 18.2053 28.1282 17.4762 29.3476C18.1055 29.729 18.6724 30.0749 19.2393 30.4189C19.3052 30.3619 19.3712 30.328 19.4033 30.2745C20.423 28.581 21.4569 26.8946 22.448 25.1833C22.9668 24.2884 22.4552 23.5165 21.3731 23.4987C20.7724 23.4898 20.1698 23.4987 19.4585 23.4987C20.1502 22.5664 20.742 21.7678 21.3624 20.9317C20.7937 20.5021 20.2661 20.1046 19.6707 19.6553V19.6536ZM29.0581 17.1418H26.9456C26.9278 17.4983 26.9135 17.8014 26.8975 18.1241C26.5356 18.149 26.2165 18.1722 25.9028 18.1936V20.2614C26.27 20.2882 26.5891 20.3114 26.9028 20.3327C26.9207 20.7018 26.9349 21.0048 26.9492 21.3185H29.0349C29.0545 20.9585 29.0723 20.6376 29.0937 20.2775H30.092V18.1882C29.739 18.1651 29.4182 18.1419 29.0581 18.1187V17.1418ZM12.9965 20.265V18.2114H8.81084V20.265H12.9965Z" fill="#FF7637"/>
<path d="M19.6707 19.6536C20.2679 20.1028 20.7937 20.5003 21.3624 20.9299C20.7438 21.7642 20.1502 22.5628 19.4585 23.4969C20.1698 23.4969 20.7723 23.4898 21.3731 23.4969C22.4534 23.5148 22.9668 24.2867 22.448 25.1815C21.4569 26.8929 20.423 28.5775 19.4033 30.2728C19.3712 30.3262 19.3052 30.3601 19.2393 30.4172C18.6724 30.0731 18.1055 29.7291 17.4762 29.3458C18.2053 28.1265 18.9148 26.9374 19.6956 25.6308C18.9113 25.6308 18.2357 25.6219 17.5618 25.6343C17.0627 25.6432 16.6348 25.5292 16.3799 25.055C16.1197 24.5737 16.2783 24.1601 16.5796 23.7608C17.5975 22.4149 18.6082 21.0636 19.6707 19.6518V19.6536Z" fill="black"/>
<path d="M29.0581 17.1419V18.1188C29.4182 18.1438 29.739 18.1651 30.092 18.1883V20.2776H29.0937C29.0741 20.6394 29.0563 20.9585 29.0349 21.3186H26.9492C26.9349 21.0049 26.9207 20.7018 26.9028 20.3328C26.5891 20.3097 26.2682 20.2865 25.9028 20.2615V18.1937C26.2165 18.1723 26.5356 18.1491 26.8975 18.1241C26.9135 17.8015 26.9278 17.4984 26.9456 17.1419H29.0581Z" fill="black"/>
<path d="M12.9965 20.2633H8.81085V18.2097H12.9965V20.2633Z" fill="black"/>
<path d="M47.1804 35.2892V37.3446H42.993V35.2892H47.1804Z" fill="black"/>
<path d="M10.9215 48.0939H10.9108C10.3447 48.0939 9.88577 48.5528 9.88577 49.1189C9.88577 49.685 10.3447 50.1439 10.9108 50.1439H10.9215C11.4876 50.1439 11.9465 49.685 11.9465 49.1189C11.9465 48.5528 11.4876 48.0939 10.9215 48.0939Z" fill="#FF7637"/>
<path d="M50.4248 48.092H50.4141C49.847 48.092 49.3873 48.5518 49.3873 49.1188C49.3873 49.6859 49.847 50.1456 50.4141 50.1456H50.4248C50.9919 50.1456 51.4516 49.6859 51.4516 49.1188C51.4516 48.5518 50.9919 48.092 50.4248 48.092Z" fill="#FF7637"/>
</g>
</svg>
