<svg width="64" height="56" viewBox="0 0 64 56" fill="none" xmlns="http://www.w3.org/2000/svg">
<mask id="mask0_13_197" style="mask-type:alpha" maskUnits="userSpaceOnUse" x="0" y="0" width="64" height="56">
<rect width="64" height="56" fill="#D9D9D9"/>
</mask>
<g mask="url(#mask0_13_197)">
<path d="M59.7588 19.2475C61.914 18.7609 63.0385 17.5279 62.999 15.7508C62.9826 14.965 62.713 14.268 62.2115 13.663C61.2811 12.5386 60.0037 12.3627 58.5587 12.4547C58.8152 9.72085 58.4157 7.39797 55.233 6.73546C55.233 6.17817 55.2478 5.64718 55.2297 5.11618C55.1738 3.45252 54.0773 2.10613 52.4745 1.79214C51.9583 1.69186 51.4142 1.72145 50.8815 1.72309C48.8135 1.73131 47.3816 3.16647 47.3569 5.2477C47.3504 5.73266 47.3553 6.21762 47.3553 6.76012H43.3507C43.2487 6.76012 43.1156 6.79793 43.0498 6.74861C42.9051 6.64176 42.7358 6.51024 42.6816 6.35242C42.407 5.56005 42.1719 4.75287 41.9089 3.95556C41.4355 2.52534 40.7286 2.01078 39.2309 2.0075C37.1809 2.00256 35.131 2.0075 33.0793 2.0075C29.9427 2.0075 26.8061 2.00256 23.6678 2.01078C22.3 2.01407 21.5915 2.53356 21.146 3.82405C20.9783 4.30737 20.8287 4.79726 20.6742 5.28551C20.3629 6.26858 19.7004 6.76067 18.6866 6.76177H15.6437C15.6437 6.142 15.6552 5.61265 15.6421 5.0833C15.5993 3.43937 14.4782 2.07983 12.8704 1.78392C12.3723 1.69186 11.8495 1.72309 11.3382 1.72474C9.24715 1.73131 7.79391 3.1862 7.76925 5.28551C7.76268 5.77376 7.76761 6.26036 7.76761 6.73546C5.642 7.13987 4.23643 8.71312 4.40411 11.0853C4.43535 11.5259 4.40904 11.9698 4.40904 12.4465H3.51967C2.26041 12.4498 1.24775 12.9413 0.552363 14.0017C0.322212 14.3518 0.180833 14.7612 0 15.1442V16.4972C0.52606 18.0342 1.51078 19.042 3.24513 19.2212V43.9723C3.24513 44.117 3.28623 44.2781 3.23198 44.3997C3.16458 44.5559 3.04786 44.7482 2.90319 44.8058C1.50749 45.3696 0.869643 46.2755 0.866355 47.7682C0.861424 49.4696 0.917317 51.1744 0.848272 52.8726C0.794022 54.196 1.42694 55.1708 3.16294 55.1675C21.9038 55.1346 40.6447 55.1462 59.3873 55.1462C59.55 55.1462 59.7144 55.1494 59.8788 55.1462C60.9441 55.1166 61.6526 54.436 61.6625 53.3658C61.6822 51.3963 61.6822 49.4285 61.6608 47.4591C61.6493 46.4399 61.1792 45.6245 60.2931 45.1379C59.8607 44.9011 59.7489 44.6447 59.7489 44.186C59.7621 36.0863 59.7588 27.9867 59.7588 19.8886V19.2508V19.2475ZM49.9215 3.83062C50.7467 3.33415 51.7364 3.34895 52.5715 3.78624C53.7798 4.41915 53.308 5.63896 53.4115 6.70916H49.1899C49.282 5.6817 48.7921 4.50957 49.9215 3.83062ZM22.8557 4.45696C22.9921 3.97858 23.2634 3.83227 23.7516 3.83391C28.3201 3.85035 32.8886 3.84377 37.4588 3.84377C38.0933 3.84377 38.7295 3.86186 39.3641 3.8372C39.7504 3.8224 39.9855 3.96543 40.1006 4.33202C40.3455 5.10961 40.5938 5.88555 40.8584 6.71738H22.1422C22.3921 5.93322 22.6469 5.20167 22.8557 4.45696ZM10.25 3.87665C10.7678 3.45581 12.4232 3.39662 13.0216 3.7698C14.1839 4.49477 13.7203 5.65046 13.8222 6.73382H9.61704C9.67951 5.72773 9.28167 4.66081 10.25 3.87665ZM6.34889 9.93621C6.45903 9.18164 7.2284 8.6638 8.00433 8.60462C8.20818 8.58818 8.41368 8.58982 8.61917 8.58982C23.8749 8.58982 39.1323 8.58982 54.388 8.59804C54.8286 8.59969 55.2971 8.65394 55.7016 8.81504C56.2835 9.04684 56.6682 9.5466 56.7192 10.1779C56.7783 10.9061 56.7339 11.6426 56.7339 12.4087H6.32094C6.32094 11.5851 6.22888 10.745 6.34889 9.93621ZM33.7665 19.1817C33.9851 19.2245 34.2169 19.2031 34.4421 19.2031H57.8979V44.6611C55.3909 44.5888 54.0889 45.7626 54.2549 48.3978H34.401C33.4443 48.3978 33.0021 48.6805 32.984 49.297C32.9659 49.9316 33.4213 50.2291 34.4142 50.2291H54.7168C55.8396 50.2291 56.0895 49.9776 56.0912 48.8597C56.0928 48.429 56.0797 47.9983 56.0977 47.5676C56.124 46.9462 56.4758 46.5648 57.089 46.5352C57.6825 46.5073 58.2792 46.504 58.8727 46.5401C59.4004 46.5714 59.8032 46.8689 59.8114 47.4164C59.841 49.3578 59.8229 51.2993 59.8229 53.277H2.70263V51.0001C2.70263 49.8921 2.69606 48.7841 2.70592 47.6777C2.7125 46.9232 3.0906 46.5484 3.84188 46.5286C4.33506 46.5171 4.8266 46.5171 5.31978 46.5286C6.06942 46.5467 6.43931 46.9117 6.4689 47.6745C6.48862 48.1857 6.46232 48.7003 6.4804 49.2115C6.50342 49.9086 6.81412 50.2242 7.51115 50.2258C14.8316 50.2308 22.1537 50.2291 29.4758 50.2258C30.1663 50.2258 30.5427 49.8839 30.5345 49.3085C30.5263 48.7463 30.1416 48.4076 29.4479 48.4027C28.0111 48.3912 26.5759 48.3978 25.1407 48.3978H8.2986C8.31668 47.3818 8.28545 46.4415 7.59828 45.6771C6.93413 44.9389 6.07928 44.6808 5.10278 44.666V19.2031H29.0204C29.2259 19.2031 29.4331 19.2146 29.6353 19.1965C30.1794 19.1521 30.5296 18.7921 30.5345 18.294C30.5394 17.7909 30.1991 17.4243 29.6566 17.3701C29.4544 17.3504 29.2473 17.3619 29.0418 17.3619H3.63146C2.61879 17.3619 1.95629 16.8638 1.85107 16.0369C1.74093 15.1754 2.33768 14.4077 3.21061 14.2976C3.39309 14.2746 3.57885 14.2811 3.76297 14.2811C22.2622 14.2811 40.7614 14.2811 59.2607 14.2844C59.5434 14.2844 59.8393 14.3025 60.1073 14.3847C60.8158 14.6017 61.2318 15.2708 61.1545 15.9974C61.0805 16.7043 60.4986 17.2813 59.7769 17.352C59.5533 17.3734 59.3264 17.3619 59.1012 17.3619C50.8766 17.3619 42.652 17.3619 34.429 17.3635C34.2021 17.3635 33.9703 17.3405 33.7533 17.3865C33.2782 17.4868 32.9873 17.7942 32.9905 18.2907C32.9955 18.7855 33.2881 19.0897 33.7665 19.1817Z" fill="black"/>
<path d="M53.4115 6.70911H49.1899C49.282 5.68164 48.7921 4.50952 49.9215 3.83057C50.7467 3.3341 51.7364 3.3489 52.5715 3.78618C53.7798 4.4191 53.308 5.6389 53.4115 6.70911Z" fill="#FF7637"/>
<path d="M13.8222 6.73381H9.61704C9.67951 5.72772 9.28167 4.66081 10.25 3.87665C10.7678 3.4558 12.4232 3.39662 13.0216 3.76979C14.1839 4.49477 13.7203 5.65046 13.8222 6.73381Z" fill="#FF7637"/>
<path d="M38.626 32.2164C38.2347 31.3961 37.4358 31.4618 36.6976 31.4569C35.4499 31.4487 34.2021 31.4553 32.8607 31.4553C33.3456 29.4562 33.8125 27.5723 34.2514 25.6817C34.3468 25.2708 34.4224 24.8253 34.3682 24.4143C34.2613 23.6055 33.4772 23.252 32.8048 23.7123C32.4086 23.9836 32.0634 24.36 31.7675 24.7431C29.586 27.5641 27.4225 30.3982 25.2575 33.2307C24.9846 33.5874 24.6969 33.9442 24.4832 34.3371C23.944 35.3284 24.4059 36.2473 25.5287 36.318C26.8159 36.3986 28.1097 36.3641 29.4002 36.3789C29.6172 36.3805 29.8342 36.3789 30.1038 36.3789C30.0397 36.6764 30.0019 36.8753 29.9542 37.0726C29.5514 38.7445 29.1404 40.4131 28.7459 42.0866C28.6801 42.3628 28.6374 42.6538 28.6423 42.9365C28.6604 43.9097 29.5416 44.4079 30.3619 43.8752C30.7466 43.6253 31.0819 43.2653 31.3663 42.8971C33.607 39.9922 35.8329 37.0775 38.0555 34.1595C38.4895 33.5907 39.0024 33.0038 38.6276 32.218L38.626 32.2164Z" fill="#FF7637"/>
<path d="M48.2956 27.791C48.4633 26.9657 47.9981 25.7903 49.2606 25.7969C50.4985 25.8035 50.0711 26.9707 50.2355 27.7926C50.5692 27.7926 50.9111 27.7778 51.2514 27.7959C51.8153 27.8272 52.1605 28.1576 52.1802 28.659C52.2 29.1653 51.8827 29.5385 51.327 29.5993C50.9835 29.6371 50.6333 29.6059 50.1796 29.6059C50.1796 29.9676 50.1911 30.2849 50.1763 30.6021C50.1467 31.2334 49.7949 31.6247 49.2655 31.6312C48.7165 31.6378 48.3614 31.2285 48.3482 30.561C48.3417 30.2783 48.3482 29.9955 48.3482 29.6174C47.9586 29.6174 47.6167 29.6388 47.278 29.6125C46.6911 29.5681 46.3245 29.1982 46.3278 28.6902C46.3311 28.1724 46.6961 27.8239 47.2912 27.7943C47.615 27.7778 47.9389 27.791 48.2956 27.791Z" fill="black"/>
<path d="M12.7948 27.7895C13.3488 27.7895 13.9028 27.7747 14.4551 27.7944C15.065 27.8158 15.4086 28.1511 15.4152 28.6854C15.4201 29.2115 15.0766 29.5912 14.4749 29.6077C13.3488 29.6373 12.2194 29.6356 11.0933 29.6093C10.5081 29.5962 10.1234 29.2016 10.1168 28.7052C10.1102 28.184 10.5146 27.8092 11.1344 27.7911C11.6868 27.7763 12.2408 27.7878 12.7948 27.7878V27.7895Z" fill="black"/>
</g>
</svg>
