<svg width="64" height="56" viewBox="0 0 64 56" fill="none" xmlns="http://www.w3.org/2000/svg">
<mask id="mask0_10_155" style="mask-type:alpha" maskUnits="userSpaceOnUse" x="0" y="0" width="64" height="56">
<rect width="64" height="56" fill="#D9D9D9"/>
</mask>
<g mask="url(#mask0_10_155)">
<path d="M62.7042 14.6332C61.1272 20.4766 54.0329 22.8368 49.2752 19.1035C49.0053 18.8924 48.7807 18.664 48.8736 18.2836C48.9891 17.8145 49.5017 17.681 49.9556 17.964C50.5765 18.3494 51.185 18.7766 51.8504 19.0632C55.4032 20.5942 59.7771 18.7061 61.1545 15.0792C62.7298 10.9331 60.4721 6.52526 56.2153 5.43773C52.8226 4.5704 49.1489 6.42946 47.8703 9.67078C47.7012 10.0996 47.5739 10.5452 47.4524 10.9901C47.3117 11.5066 47.0498 11.7379 46.6507 11.6546C46.2422 11.5689 46.0684 11.2141 46.1775 10.6846C46.95 6.93295 50.207 4.12917 54.0278 3.92597C59.823 3.61854 64.2146 9.0384 62.7042 14.6332Z" fill="black"/>
<path d="M57.9437 11.5587C57.7998 11.2414 57.5286 11.1812 57.2121 11.1863C56.6922 11.1955 56.1733 11.1883 55.6329 11.1883C55.8034 10.0131 55.9627 8.89293 56.1312 7.77481C56.1826 7.42999 56.1384 7.13312 55.786 6.97193C55.4459 6.81584 55.2013 6.97703 54.9794 7.22493C53.4053 8.98679 51.8302 10.7456 50.253 12.5034C50.0527 12.7258 49.9181 12.9584 50.0568 13.2614C50.1914 13.5592 50.4431 13.6388 50.7493 13.6347C51.2733 13.6276 51.7973 13.6327 52.3666 13.6327C52.1991 14.7947 52.0439 15.9026 51.8765 17.0085C51.822 17.3645 51.8425 17.6777 52.2145 17.8491C52.5741 18.0134 52.8197 17.8226 53.0478 17.5675C54.6044 15.8251 56.162 14.0846 57.7228 12.3462C57.9293 12.1157 58.0896 11.881 57.9437 11.5587Z" fill="#FF7637"/>
<path d="M0.00665352 34.8622C0.324359 33.7743 0.527291 32.6366 0.979731 31.6086C2.11083 29.047 4.05199 27.2805 6.65851 26.2359C6.94128 26.1228 7.22073 25.8849 7.39705 25.6321C8.96395 23.3882 10.446 21.0811 12.0695 18.8804C14.8989 15.0497 18.7596 13.0752 23.5135 12.9655C26.832 12.8889 30.1537 12.8956 33.4722 12.9638C38.2544 13.0619 42.1284 15.0463 44.9695 18.9004C46.543 21.0362 47.9952 23.2618 49.4822 25.4591C49.7068 25.7918 49.9446 25.9049 50.3422 25.9082C52.1619 25.9199 53.99 25.7718 55.7881 26.2525C60.399 27.4851 63.6908 31.6652 63.749 36.4291C63.769 38.0891 63.759 39.7492 63.7524 41.4092C63.7474 42.3474 63.2683 42.8231 62.3285 42.8281C60.8165 42.8364 59.3028 42.8298 57.7326 42.8298C57.7076 44.9472 56.9491 46.7005 55.2841 47.9996C54.1131 48.9127 52.7707 49.3502 51.287 49.2953C49.5704 49.2305 48.1149 48.5601 46.9372 47.3076C45.7745 46.07 45.2672 44.568 45.2539 42.8314C44.9844 42.8314 44.7615 42.8314 44.5403 42.8314C42.2997 42.8314 40.0592 42.8348 37.8169 42.8314C36.9004 42.8298 36.3548 42.354 36.3581 41.5822C36.3615 40.8138 36.9071 40.3447 37.8269 40.343C40.317 40.3397 42.8071 40.333 45.2972 40.3497C45.7113 40.353 45.9509 40.2482 46.1787 39.8723C48.6339 35.8386 54.3659 35.8502 56.8144 39.8956C57.0323 40.2565 57.2585 40.3563 57.6477 40.3497C58.8271 40.328 60.0064 40.3414 61.239 40.3414C61.2673 37.2275 61.6631 34.0987 59.4558 31.4689C57.7991 29.4945 55.7016 28.4465 53.1234 28.3933C51.9407 28.3683 50.7564 28.3584 49.5754 28.4C48.8102 28.4266 48.2946 28.1554 47.8671 27.5134C46.3817 25.2894 44.8597 23.0888 43.3427 20.8848C40.8543 17.2653 37.4094 15.4472 33.0164 15.4406C29.9874 15.4356 26.9584 15.4273 23.9277 15.4422C19.6112 15.4639 16.2063 17.2503 13.7412 20.7933C12.1892 23.0222 10.6872 25.2878 9.11698 27.5034C8.84086 27.8943 8.38177 28.2486 7.93266 28.4066C4.63584 29.566 2.52002 32.4669 2.49507 35.9683C2.48842 36.9647 2.48509 37.9611 2.49507 38.9558C2.50505 39.854 2.98577 40.328 3.89231 40.338C4.7423 40.348 5.59561 40.368 6.44393 40.3214C6.67182 40.3097 6.97621 40.1251 7.09598 39.9288C9.61932 35.8303 15.328 35.8153 17.8248 39.9238C18.0294 40.2615 18.2473 40.348 18.6149 40.3463C21.1665 40.3314 23.7198 40.3414 26.2714 40.338C26.8203 40.338 27.3127 40.5343 27.4657 41.05C27.5755 41.4209 27.5289 41.9116 27.3726 42.2709C27.1663 42.7466 26.6573 42.8348 26.1483 42.8331C23.9078 42.8248 21.6672 42.8298 19.4249 42.8298H18.7114C18.703 44.929 17.9512 46.6422 16.3543 47.9347C15.1284 48.9277 13.7046 49.3735 12.1294 49.2903C9.42138 49.1489 6.34579 47.0614 6.21605 42.8298C5.67379 42.8298 5.12155 42.7965 4.57596 42.8364C2.33538 42.9978 0.655372 42.0779 0 39.7176C0 38.0991 0 36.4806 0 34.8622H0.00665352ZM16.2063 43.0693C16.203 41.0117 14.5429 39.3483 12.4903 39.345C10.4477 39.3417 8.75936 41.0134 8.74439 43.056C8.72942 45.1136 10.4444 46.8235 12.5086 46.8136C14.5579 46.8019 16.2096 45.1302 16.2063 43.0693ZM51.4683 39.345C49.4207 39.355 47.7606 41.0333 47.7656 43.0859C47.7706 45.1385 49.4373 46.8086 51.4849 46.8119C53.5575 46.8152 55.2442 45.1103 55.2192 43.0377C55.1943 40.9801 53.5226 39.3333 51.47 39.3433L51.4683 39.345Z" fill="black"/>
<path d="M36.5129 28.3867C34.4187 28.3867 32.3261 28.39 30.2319 28.3867C29.164 28.385 28.7133 27.9492 28.7083 26.8813C28.6983 24.3929 28.6983 21.9061 28.7083 19.4177C28.7133 18.3781 29.1674 17.9057 30.1854 17.9357C31.9203 17.9872 33.6785 17.934 35.3834 18.2035C37.6589 18.5644 39.487 19.8436 40.8526 21.6982C41.9687 23.2169 43.0017 24.7971 44.0696 26.349C44.3623 26.7732 44.4472 27.224 44.2043 27.6964C43.9515 28.1904 43.524 28.3883 42.9801 28.3883C40.8243 28.385 38.6686 28.3883 36.5129 28.3883V28.3867ZM40.6264 25.865C38.7917 21.7864 34.8861 19.5691 31.2316 20.5122V25.865H40.6264Z" fill="black"/>
<path d="M19.4449 28.3867C17.6817 28.3867 15.9185 28.38 14.1554 28.3916C13.5965 28.395 13.1207 28.2569 12.8413 27.7413C12.5485 27.204 12.6949 26.715 13.0292 26.2342C13.9757 24.8736 14.8922 23.4897 15.842 22.1307C18.0843 18.922 21.2413 17.6978 25.0555 17.939C25.7691 17.9839 26.1949 18.4945 26.2099 19.3046C26.2298 20.3825 26.2165 21.462 26.2165 22.5399C26.2165 23.9504 26.2215 25.361 26.2165 26.7715C26.2115 27.9692 25.794 28.385 24.6114 28.3867C22.8898 28.3883 21.1682 28.3867 19.4466 28.3867H19.4449ZM23.6915 20.4257C23.5085 20.4257 23.4071 20.4224 23.3039 20.4257C23.1792 20.4307 23.0561 20.4407 22.9313 20.4557C19.568 20.8249 17.9096 23.2435 16.3726 25.855H23.6915V20.4241V20.4257Z" fill="black"/>
<path d="M30.691 33.3768C30.4016 33.3768 30.1105 33.4001 29.8244 33.3735C29.2256 33.3186 28.7931 32.8778 28.7316 32.294C28.6667 31.6669 28.9927 31.0764 29.6115 30.9932C30.3168 30.8984 31.0536 30.8984 31.7589 30.9915C32.3777 31.073 32.702 31.6552 32.6438 32.289C32.5906 32.8678 32.1564 33.3136 31.5576 33.3718C31.2715 33.3984 30.9804 33.3768 30.691 33.3768Z" fill="black"/>
<path d="M31.9901 42.8264C31.3164 42.8264 30.7659 42.2825 30.7559 41.6038C30.7476 40.9252 31.2815 40.3646 31.9552 40.3463C32.6422 40.328 33.2426 40.9152 33.2327 41.6005C33.2243 42.2642 32.6538 42.8264 31.9901 42.8281V42.8264Z" fill="black"/>
<path d="M40.628 25.865H31.2333V20.5122C34.8877 19.5691 38.7917 21.7864 40.628 25.865Z" fill="#FF7637"/>
<path d="M23.6915 20.4274V25.8583H16.3727C17.9096 23.2451 19.5697 20.8282 22.9314 20.459C23.0544 20.4457 23.1792 20.4357 23.304 20.429C23.4054 20.424 23.5085 20.429 23.6915 20.429V20.4274Z" fill="#FF7637"/>
<path d="M13.7129 43.0477C13.7262 43.7347 13.2072 44.2919 12.5302 44.3185C11.8466 44.3451 11.2378 43.7613 11.2378 43.0776C11.2378 42.4206 11.8067 41.8467 12.4687 41.8384C13.1457 41.8301 13.6996 42.3674 13.7129 43.0477Z" fill="#FF7637"/>
<path d="M51.5198 44.3201C50.8478 44.3368 50.2839 43.8011 50.2623 43.1242C50.239 42.4438 50.7563 41.875 51.4317 41.84C52.1286 41.8034 52.7141 42.3607 52.7208 43.0659C52.7275 43.7479 52.1968 44.3035 51.5215 44.3201H51.5198Z" fill="#FF7637"/>
</g>
</svg>
