<svg width="64" height="56" viewBox="0 0 64 56" fill="none" xmlns="http://www.w3.org/2000/svg">
<mask id="mask0_11_177" style="mask-type:alpha" maskUnits="userSpaceOnUse" x="0" y="0" width="64" height="56">
<rect width="64" height="56" fill="#D9D9D9"/>
</mask>
<g mask="url(#mask0_11_177)">
<path d="M26.3727 33.1322C27.4055 31.3435 28.4278 29.5756 29.4917 27.7332C28.6302 27.2333 27.8016 26.7472 26.9695 26.268C25.9143 25.6591 25.8382 25.3823 26.4523 24.3167C28.8326 20.1909 31.2147 16.0651 33.5968 11.941C33.7248 11.7196 33.8511 11.4965 34.0223 11.2006C33.0467 10.635 32.1056 10.0866 31.1611 9.5434C29.9969 8.87393 29.9242 8.61791 30.5937 7.46061C31.1334 6.5282 31.6697 5.59233 32.2163 4.6651C32.6471 3.93509 33.0328 3.82437 33.7628 4.24301C35.9321 5.48507 38.1066 6.72022 40.2482 8.00899C40.5682 8.201 40.8502 8.63521 40.9332 9.00541C41.3225 10.7284 41.646 12.4669 41.9712 14.2037C42.0525 14.6362 42.2272 14.913 42.6285 15.1431C49.3942 19.0301 56.1407 22.9483 62.9133 26.8233C63.7108 27.28 64.0118 27.7972 63.9996 28.721C63.9495 32.6046 63.9789 36.4882 63.9789 40.3718C63.9789 40.5448 63.9893 40.7178 63.9737 40.8891C63.9253 41.4271 63.5412 41.8094 63.0517 41.7765C62.5258 41.7419 62.2317 41.434 62.1746 40.9133C62.1556 40.742 62.1677 40.569 62.1677 40.3961C62.1677 37.6767 62.1677 34.959 62.1677 32.2396V31.6134L62.057 31.5753C61.6193 32.3278 61.1816 33.0786 60.7457 33.8328C60.1627 34.8396 59.5607 35.8378 59.0089 36.8619C58.7252 37.3895 58.3342 37.6507 57.7513 37.7337C56.4936 37.9137 55.2412 38.1333 53.9369 38.3444V40.5379C54.3347 40.5379 54.7378 40.5206 55.1374 40.5414C55.8138 40.576 56.1355 40.8752 56.1407 41.5551C56.158 43.669 56.158 45.7847 56.1373 47.8986C56.1304 48.5594 55.7809 48.857 55.1115 48.8916C55.025 48.8967 54.9385 48.9002 54.852 48.8916C53.6462 48.7826 52.7398 49.0127 51.7918 50.0402C49.5498 52.469 45.6403 52.0313 43.6613 49.3327C43.4105 48.9902 43.1614 48.8345 42.76 48.8916C42.696 48.9002 42.6303 48.8985 42.5663 48.8916C41.6062 48.7843 40.9246 49.0421 40.2153 49.8551C37.9803 52.4205 33.9306 52.1247 31.8842 49.3517C31.616 48.9884 31.3514 48.8829 30.9275 48.8846C25.4905 48.8968 20.0534 48.895 14.6146 48.8846C14.2202 48.8846 13.9607 48.9694 13.7047 49.3188C11.4749 52.3669 7.08442 52.3583 4.85459 49.3085C4.62106 48.9902 4.38925 48.8622 4.00521 48.8846C3.48971 48.914 2.96901 48.9089 2.45177 48.8864C1.05056 48.8258 0.0178092 47.7844 0.0126195 46.378C-0.00121963 42.5152 -0.0133289 38.6523 0.0316483 34.7912C0.0385679 34.2203 0.247885 33.5872 0.550616 33.0976C1.87744 30.9526 3.27693 28.8525 4.64354 26.7334C5.25247 25.7871 6.1053 25.2993 7.23492 25.2993C10.6653 25.2993 14.0957 25.2941 17.5278 25.301C18.3633 25.3027 18.6453 25.6245 18.6453 26.5206C18.647 30.9007 18.6453 35.2808 18.6453 39.6608C18.6453 39.9169 18.6453 40.1729 18.6453 40.4185C19.6711 40.6901 19.8164 40.6348 20.2852 39.8252C21.5031 37.7164 22.7209 35.606 23.9388 33.4972C24.5858 32.3745 24.8331 32.3088 25.9818 32.9437C26.0925 33.0059 26.2084 33.0578 26.3641 33.1357L26.3727 33.1322ZM16.803 47.0388V27.1606C16.6853 27.1399 16.604 27.1122 16.521 27.1122C13.4366 27.1105 10.3505 27.1122 7.26606 27.107C6.73153 27.107 6.38901 27.37 6.11222 27.8024C4.79577 29.8523 3.45684 31.8867 2.15596 33.947C1.96221 34.2549 1.84631 34.6649 1.84112 35.0299C1.81344 37.2511 1.82728 39.474 1.82728 41.6952C1.82728 43.2054 1.83247 44.7156 1.82555 46.2258C1.82382 46.7863 2.08503 47.07 2.64379 47.0752C3.04685 47.0786 3.44992 47.0752 3.8599 47.0752C3.44646 43.0376 6.36825 40.7749 8.99423 40.6503C10.4075 40.5829 11.6825 40.9911 12.7689 41.9045C14.3621 43.2417 14.9329 44.9976 14.7323 47.0406H16.803V47.0388ZM61.8355 28.3179C61.5536 28.1536 61.3339 28.0239 61.1125 27.8958C54.506 24.0797 47.9013 20.2566 41.2827 16.4578C40.7014 16.1239 40.4056 15.7122 40.2897 15.0652C39.9835 13.3474 39.6358 11.6366 39.2847 9.92744C39.2414 9.71812 39.1324 9.44653 38.9664 9.34965C37.1517 8.27366 35.3215 7.22707 33.4497 6.14589C33.0709 6.80498 32.7093 7.4312 32.3167 8.11105C33.3684 8.71824 34.3735 9.29603 35.3751 9.879C36.266 10.398 36.3663 10.7664 35.856 11.6573C35.2817 12.6589 34.7022 13.6588 34.1054 14.6933C43.0333 19.8484 51.8939 24.9654 60.7976 30.1066C61.1471 29.5029 61.4705 28.9476 61.8338 28.3197L61.8355 28.3179ZM26.4402 40.4981H31.4811C31.4811 39.8252 31.4811 39.1851 31.4811 38.5433C31.4846 37.5227 31.7562 37.2511 32.7889 37.2494C36.887 37.2494 40.9834 37.2494 45.0815 37.2494C45.3012 37.2494 45.5227 37.2494 45.7424 37.2494C45.7458 37.2044 45.751 37.1594 45.7545 37.1144C40.8762 34.2964 35.9961 31.4802 31.0677 28.6345C30.009 30.4699 28.9797 32.2517 27.94 34.0543C28.2531 34.2411 28.5299 34.3726 28.7634 34.5559C28.9416 34.6961 29.1769 34.8967 29.189 35.0835C29.2098 35.4018 29.1458 35.7703 28.9918 36.0471C28.1805 37.5106 27.3311 38.9533 26.4402 40.4964V40.4981ZM30.867 47.051C30.6542 45.2882 31.0936 43.7624 32.2596 42.382H18.7024V47.051H30.867ZM28.2289 24.8703C28.3535 24.9585 28.4192 25.0121 28.4936 25.0554C35.3959 29.0393 42.2981 33.0232 49.2021 37.0055C49.3301 37.0798 49.4841 37.1957 49.6104 37.1784C50.6103 37.0401 51.6067 36.8723 52.7847 36.6854C44.829 32.0926 37.0566 27.6052 29.2547 23.1006C28.8984 23.7147 28.5766 24.27 28.2289 24.8685V24.8703ZM12.9574 46.1393C12.9695 44.1343 11.3209 42.4633 9.31599 42.4477C7.31796 42.4321 5.64342 44.0842 5.62612 46.0926C5.60709 48.0872 7.26779 49.7703 9.26928 49.7859C11.2673 49.8015 12.9453 48.1408 12.9574 46.1393ZM44.4242 46.0805C44.4121 48.1045 46.0261 49.7582 48.0414 49.7842C50.0429 49.8101 51.7087 48.1685 51.7295 46.1497C51.7503 44.1326 50.1259 42.4702 48.1106 42.446C46.1091 42.4218 44.4345 44.0703 44.4224 46.0787L44.4242 46.0805ZM39.9334 46.141C39.9455 44.117 38.3246 42.465 36.3092 42.446C34.3008 42.4287 32.6419 44.0703 32.6332 46.0874C32.6246 48.1166 34.2386 49.7634 36.2573 49.7825C38.2658 49.8015 39.9213 48.1598 39.9334 46.1393V46.141ZM44.5055 22.7927C43.4779 24.5727 42.4832 26.2974 41.4661 28.0567C42.8517 28.8559 44.1733 29.6188 45.5469 30.4111C46.564 28.6483 47.5674 26.9081 48.5846 25.147C47.2058 24.3513 45.9015 23.5988 44.5055 22.7909V22.7927ZM34.2403 23.8842C35.2696 22.1024 36.2573 20.3898 37.278 18.6236C35.9079 17.8313 34.5742 17.0598 33.1989 16.264C32.1783 18.032 31.1801 19.7619 30.1612 21.5264C31.5209 22.3117 32.8408 23.0746 34.242 23.8842H34.2403ZM54.2396 28.4165C52.8522 27.6156 51.5323 26.8544 50.1588 26.0604C49.1433 27.8197 48.1469 29.5444 47.1211 31.321C48.4946 32.115 49.8266 32.8849 51.2019 33.6789C52.2173 31.9196 53.2051 30.2104 54.2396 28.4165ZM38.8522 19.5283C37.8194 21.3205 36.8248 23.0418 35.8128 24.7959C37.2088 25.6003 38.527 26.3597 39.8936 27.1485C40.9108 25.3858 41.9089 23.6576 42.9313 21.8879C41.5681 21.0991 40.2499 20.3362 38.8522 19.5283ZM52.7761 34.5853C53.5165 35.0161 54.2309 35.3448 54.8433 35.8084C55.6685 36.4311 56.4833 36.0627 57.3119 35.9398C57.3984 35.9277 57.4935 35.8274 57.5437 35.7426C58.3221 34.4072 59.0937 33.07 59.8963 31.6826C58.5159 30.8868 57.1839 30.117 55.8138 29.3282C54.7932 31.0961 53.8054 32.8087 52.7761 34.5888V34.5853ZM52.0426 40.4964V39.1004H33.3269V40.4964H52.0426ZM25.3573 34.6788C24.2242 36.6422 23.1344 38.533 21.9823 40.5293C22.7607 40.5293 23.4198 40.5535 24.0754 40.512C24.238 40.5016 24.437 40.3096 24.5339 40.1504C24.994 39.3996 25.4265 38.6298 25.8659 37.8669C26.2793 37.149 26.6876 36.4294 27.1131 35.689C26.5077 35.3413 25.9714 35.0316 25.3573 34.6805V34.6788ZM40.2828 42.375C41.518 43.7866 41.9003 45.3314 41.6996 47.0388H42.6528C42.44 45.2916 42.9036 43.759 44.0436 42.375H40.2828ZM54.2949 47.0492V42.3802H52.0876C53.302 43.7728 53.7016 45.3262 53.4957 47.0492H54.2949Z" fill="black"/>
<path d="M9.29004 44.9197C9.92145 44.9197 10.4854 45.4802 10.4889 46.1116C10.4906 46.7447 9.93183 47.3087 9.29869 47.3104C8.65863 47.3139 8.10679 46.7638 8.10506 46.1185C8.10333 45.4767 8.65344 44.9197 9.29177 44.918L9.29004 44.9197Z" fill="#FF7637"/>
<path d="M49.2558 46.1219C49.254 46.7793 48.7195 47.3155 48.0725 47.3121C47.4273 47.3086 46.8893 46.762 46.891 46.1133C46.8927 45.4663 47.4376 44.9214 48.0812 44.9231C48.7264 44.9231 49.2575 45.4663 49.2558 46.1236V46.1219Z" fill="#FF7637"/>
<path d="M36.2677 44.9215C36.9147 44.9094 37.4527 45.4422 37.4613 46.0995C37.47 46.7621 36.9545 47.3001 36.3006 47.3104C35.6553 47.3208 35.1104 46.7863 35.1035 46.1324C35.0948 45.4768 35.619 44.9318 36.2677 44.9215Z" fill="#FF7637"/>
<path d="M14.2514 29.6222C14.2462 28.8679 13.9383 28.5427 13.203 28.5375C11.5216 28.5254 9.84014 28.5064 8.16041 28.5565C7.83173 28.5669 7.3958 28.7935 7.20897 29.0617C6.31115 30.3504 5.47043 31.6807 4.6297 33.0093C4.11419 33.8241 4.49996 34.5281 5.45832 34.5385C6.75055 34.5506 8.04451 34.542 9.33847 34.542C10.6099 34.542 11.8814 34.5472 13.1529 34.5402C13.9279 34.5351 14.2462 34.2185 14.2514 33.4383C14.26 32.1668 14.26 30.8954 14.2514 29.6239V29.6222Z" fill="#FF7637"/>
</g>
</svg>
