<svg width="64" height="56" viewBox="0 0 64 56" fill="none" xmlns="http://www.w3.org/2000/svg">
<mask id="mask0_2_29" style="mask-type:alpha" maskUnits="userSpaceOnUse" x="0" y="0" width="64" height="56">
<rect width="64" height="56" fill="#D9D9D9"/>
</mask>
<g mask="url(#mask0_2_29)">
<path d="M0.00331658 7.52285C0.323367 6.84461 0.854019 6.59421 1.60357 6.61245C3.17563 6.64893 4.74768 6.62406 6.31974 6.62406C6.54361 6.62406 6.76748 6.62406 7.07261 6.62406C7.07261 6.03868 7.07261 5.50803 7.07261 4.97903C7.07261 4.09019 7.06266 3.19969 7.07758 2.31085C7.09085 1.53145 7.522 1.08039 8.28979 1.01075C8.45396 0.995821 8.61979 1.0008 8.78562 1.0008C12.5914 1.0008 16.3988 1.0008 20.2046 1.0008C21.5428 1.0008 21.9193 1.38718 21.9209 2.75195C21.9209 4.01059 21.9209 5.26923 21.9209 6.62572C22.1979 6.62572 22.4151 6.62572 22.634 6.62572C23.813 6.62737 24.9921 6.61245 26.1711 6.63898C26.8908 6.65391 27.4049 7.18456 27.4132 7.84788C27.4215 8.47969 26.9389 9.00868 26.2607 9.09325C26.0368 9.12144 25.8063 9.10818 25.5791 9.10818C18.1732 9.10818 10.7673 9.10818 3.3597 9.10818H2.52558V13.0731H61.045V9.10818C60.7548 9.10818 60.4928 9.10818 60.2291 9.10818C52.8016 9.10818 45.3758 9.10818 37.9483 9.10818C37.7211 9.10818 37.4906 9.11979 37.2668 9.08828C36.5935 8.9921 36.1209 8.4432 36.1507 7.81305C36.1806 7.16964 36.6731 6.65888 37.3629 6.6423C38.542 6.61411 39.721 6.63069 40.9001 6.62737C41.1223 6.62737 41.3428 6.62737 41.6397 6.62737C41.6397 6.1216 41.6397 5.69376 41.6397 5.26426C41.6397 4.39532 41.6364 3.52637 41.6397 2.65743C41.6446 1.42532 42.0526 1.01075 43.2648 1.00245C43.2847 1.00245 43.3062 1.00245 43.3261 1.00245C47.1535 1.00245 50.9808 1.00245 54.8081 1.00245C56.0966 1.00245 56.4847 1.39049 56.4863 2.65743C56.4863 3.95587 56.4863 5.25431 56.4863 6.62737C57.347 6.62737 58.1479 6.62737 58.9489 6.62737C60.0251 6.62737 61.1014 6.61577 62.1759 6.63235C63.0913 6.64562 63.549 7.10828 63.5523 8.01868C63.5606 10.0667 63.5606 12.1147 63.5523 14.1626C63.549 15.1046 63.078 15.5788 62.1444 15.5938C61.4048 15.6037 60.6652 15.5954 59.8891 15.5954V46.7746C60.6221 46.7746 61.3219 46.7696 62.0184 46.7746C63.1112 46.7845 63.5507 47.2323 63.5523 48.335C63.5556 50.2388 63.5523 52.1408 63.5523 54.0445C63.5523 55.3629 63.1676 55.7559 61.8642 55.7559C56.8578 55.7575 51.8514 55.7559 46.845 55.7559C31.8259 55.7559 16.8068 55.7526 1.78764 55.7675C1.0298 55.7675 0.416231 55.6066 0 54.9417V47.6187C0.401306 46.9404 1.00327 46.7132 1.77271 46.7646C2.39955 46.8061 3.03301 46.7729 3.65487 46.7729V15.5904C2.96834 15.5904 2.32658 15.554 1.6898 15.6004C0.925326 15.6551 0.36814 15.3914 0 14.7215V7.52119L0.00331658 7.52285ZM6.21361 46.7315H57.337V15.6352H6.21361V46.7315ZM2.50568 53.222H61.0301V49.3002H2.50568V53.222ZM19.4003 3.52969H9.60482V6.5826H19.4003V3.52969ZM44.1636 3.51642V6.57928H53.9624V3.51642H44.1636Z" fill="black"/>
<path d="M31.811 6.63401C32.5025 6.64064 33.0249 7.163 33.0298 7.85119C33.0331 8.5427 32.4411 9.12476 31.7612 9.09988C31.1046 9.07501 30.5441 8.48466 30.5623 7.83295C30.5805 7.15637 31.1311 6.62903 31.8126 6.63401H31.811Z" fill="black"/>
<path d="M38.6995 27.88C37.3762 27.8651 36.0529 27.8767 34.7296 27.8767H34.1094C34.1094 25.109 34.1111 22.4425 34.1077 19.776C34.1077 18.8937 33.791 18.3797 33.1658 18.2205C32.5506 18.0646 32.0614 18.3299 31.6236 19.0745C29.0284 23.4922 26.4315 27.9082 23.8379 32.3276C23.1033 33.5812 23.6191 34.4833 25.0717 34.4883C26.4962 34.4949 27.919 34.49 29.4513 34.49V35.2445C29.4513 37.7468 29.4463 40.2492 29.4546 42.7516C29.4562 43.4995 29.7929 43.9853 30.3666 44.1362C30.9636 44.2921 31.4694 44.0832 31.8276 43.4746C34.5008 38.9358 37.1723 34.3954 39.8305 29.8468C40.4126 28.8485 39.8504 27.8916 38.6995 27.88Z" fill="#FF7637"/>
<path d="M47.8184 29.9496C47.8184 29.4935 47.8052 29.1072 47.8218 28.7224C47.8566 27.9281 48.3773 27.3842 49.0804 27.3908C49.7951 27.3975 50.2777 27.9298 50.2976 28.7456C50.3059 29.1138 50.2976 29.4836 50.2976 29.9529C50.7503 29.9529 51.1566 29.938 51.5612 29.9562C52.3356 29.9894 52.8547 30.4786 52.8663 31.1668C52.8779 31.8467 52.3572 32.3773 51.5977 32.4237C51.1914 32.4486 50.7818 32.4287 50.2943 32.4287C50.2943 32.908 50.3075 33.3159 50.291 33.7222C50.2611 34.4634 49.7852 34.951 49.102 34.9676C48.4237 34.9841 47.8931 34.5165 47.8301 33.7951C47.7936 33.369 47.8234 32.9378 47.8234 32.432C47.389 32.432 47.0241 32.442 46.6593 32.4304C45.797 32.4022 45.2763 31.918 45.2862 31.1651C45.2962 30.4404 45.8036 29.9811 46.6394 29.9529C47.0059 29.9413 47.374 29.9512 47.8151 29.9512L47.8184 29.9496Z" fill="black"/>
<path d="M14.4537 32.4304C13.6676 32.4304 12.8833 32.442 12.0989 32.4271C11.2482 32.4105 10.691 31.903 10.6927 31.18C10.6943 30.4537 11.2449 29.9612 12.1072 29.9529C13.6975 29.9396 15.2894 29.9396 16.8797 29.9529C17.7553 29.9595 18.2727 30.4388 18.2694 31.1883C18.2661 31.9329 17.7404 32.4005 16.8698 32.4287C16.8283 32.4287 16.7869 32.4287 16.7454 32.4287C15.9809 32.4287 15.2165 32.4287 14.452 32.4287L14.4537 32.4304Z" fill="black"/>
</g>
</svg>
