<svg width="64" height="56" viewBox="0 0 64 56" fill="none" xmlns="http://www.w3.org/2000/svg">
<mask id="mask0_3_35" style="mask-type:alpha" maskUnits="userSpaceOnUse" x="0" y="0" width="64" height="56">
<rect width="64" height="56" fill="#D9D9D9"/>
</mask>
<g mask="url(#mask0_3_35)">
<path d="M31.4293 13.6373C28.3317 13.6116 25.7464 16.1748 25.7305 19.2884C25.7158 22.4289 28.2826 25.013 31.4146 25.0081C34.5331 25.0044 37.0755 22.4559 37.0816 19.33C37.0865 16.2005 34.5675 13.6631 31.4293 13.6373Z" fill="#FF7637"/>
<path d="M58.6929 12.8883C58.7101 12.0891 58.4122 11.6147 57.6669 11.307C55.143 10.2626 52.641 9.1655 50.1183 8.11742C49.6942 7.94213 49.5679 7.71902 49.5728 7.2765C49.5973 5.35563 49.5642 3.43354 49.5924 1.51267C49.6022 0.828658 49.4098 0.313811 48.7834 0.00122583H42.4753C41.8317 0.289295 41.5988 0.794335 41.6184 1.48325C41.6454 2.45778 41.6258 3.43354 41.6258 4.48652C40.4674 3.99251 39.3752 3.5267 38.2805 3.06089C35.9674 2.07777 33.6542 1.09589 31.3423 0.11155C31.2786 0.084582 31.2246 0.0380006 31.1658 0H30.5137C28.8416 0.725689 27.1745 1.45996 25.4988 2.17461C18.3155 5.23673 11.1272 8.28658 3.95124 11.3646C3.58472 11.5215 3.31504 11.9052 3 12.1835V18.4928C3.51117 19.3349 3.8875 19.4686 4.84732 19.1437C5.56688 18.901 6.28399 18.6497 7.00355 18.4058C8.3017 17.9669 9.59985 17.5318 10.9029 17.0929V45.4634C10.6246 45.4634 10.3905 45.4634 10.1564 45.4634C8.90603 45.4634 7.65569 45.4524 6.40534 45.472C5.76056 45.4818 5.29842 45.9611 5.28249 46.5654C5.26655 47.1735 5.70295 47.6601 6.33915 47.7312C6.51812 47.7508 6.70077 47.7422 6.88219 47.7422C12.5357 47.7422 18.1904 47.7422 23.8439 47.7422H24.1394L25.1507 45.4561C21.2072 45.4561 17.2637 45.4499 13.3202 45.4426C13.3067 45.4426 13.2933 45.4193 13.2246 45.3568V44.826C13.2246 35.636 13.2283 26.4447 13.2124 17.2547C13.2124 16.7975 13.3546 16.6038 13.7738 16.4543C19.3255 14.4684 24.8687 12.4605 30.4205 10.4747C30.6669 10.3864 30.9954 10.3742 31.2418 10.4575C36.7985 12.3318 42.3453 14.2306 47.902 16.1024C48.3421 16.2508 48.4659 16.453 48.4647 16.9041C48.4512 26.2033 48.4549 35.5024 48.4549 44.8015V45.4463H33.4115L31.1401 47.7386C31.1756 47.7361 31.2112 47.7349 31.2479 47.7349C39.0944 47.7459 46.941 47.7435 54.7875 47.7422C55.0044 47.7422 55.2263 47.7533 55.4384 47.7177C56.0403 47.6148 56.435 47.1085 56.3958 46.5213C56.359 45.9574 55.9263 45.5125 55.3366 45.4757C54.8855 45.4475 54.4308 45.4647 53.9784 45.4647C52.9144 45.4647 51.8504 45.4647 50.7668 45.4647V17.088C50.9801 17.1579 51.1504 17.2118 51.3196 17.2694C53.2037 17.9093 55.0853 18.5541 56.9719 19.1879C58.0126 19.5372 58.6782 19.0506 58.6795 17.9461C58.6831 16.2606 58.6549 14.5738 58.6917 12.8896L58.6929 12.8883ZM43.9046 2.307H47.2805V6.87321C46.1883 6.41107 45.1476 5.97467 44.113 5.52235C44.021 5.48189 43.9144 5.34215 43.9132 5.24776C43.8985 4.27691 43.9046 3.30728 43.9046 2.307ZM56.4043 16.5891C54.9628 16.1012 53.6119 15.6477 52.2635 15.188C45.3682 12.8356 38.4717 10.4845 31.5814 8.11987C31.0751 7.9458 30.6289 7.94703 30.1165 8.12232C22.0077 10.9013 13.8939 13.6631 5.78017 16.4273C5.64656 16.4726 5.50804 16.5082 5.28249 16.5756C5.28249 15.4871 5.26778 14.4488 5.3021 13.4118C5.30578 13.2929 5.5583 13.1433 5.72256 13.0722C9.44784 11.4786 13.1768 9.89241 16.9058 8.3062C21.3837 6.40126 25.8641 4.50246 30.3371 2.58527C30.7012 2.42959 30.9881 2.42346 31.3546 2.58159C36.7531 4.90085 42.1578 7.2054 47.5637 9.50751C50.3598 10.6978 53.1571 11.8819 55.9618 13.0526C56.2965 13.1923 56.4276 13.3566 56.4166 13.7292C56.3872 14.6511 56.4068 15.5741 56.4068 16.5903L56.4043 16.5891Z" fill="black"/>
<path d="M40.7861 37.1315C38.2792 39.7498 35.7884 42.3829 33.2938 45.0135C33.2411 45.0687 33.1908 45.1275 33.1369 45.1913L30.3469 48.0744C30.32 48.1002 30.2918 48.1247 30.2648 48.1541C28.1049 50.4513 25.9254 52.7301 23.752 55.0151C23.6649 55.107 23.5791 55.2014 23.4872 55.2884C23.0189 55.7383 22.4845 55.8155 22.0113 55.5042C21.5185 55.1818 21.3543 54.6167 21.6215 54.0209C22.1241 52.8981 22.6475 51.7838 23.1624 50.6671C23.5154 49.9021 23.8684 49.136 24.2399 48.3306C24.3293 48.1369 24.4201 47.942 24.5108 47.7435H24.5083L25.9511 44.5808C26.1681 44.1126 26.3863 43.632 26.6192 43.1209H25.9278C24.5328 43.1209 23.1366 43.138 21.7416 43.1135C20.7536 43.0964 20.2473 42.3339 20.6286 41.4403C22.5347 36.9733 24.4532 32.5126 26.3654 28.0493C26.591 27.5235 26.9759 27.2697 27.5496 27.2709C30.0687 27.2758 32.5877 27.2636 35.1068 27.2771C36.1108 27.282 36.5974 28.0469 36.2149 28.981C35.9355 29.6662 35.6302 30.3416 35.3397 31.022C34.9156 32.0124 34.4927 33.0041 34.0575 34.024C34.2119 34.0755 34.31 34.1258 34.413 34.1405C36.2713 34.4028 38.1309 34.6688 39.9917 34.9152C40.5482 34.9887 41.0386 35.153 41.2323 35.7218C41.4235 36.2771 41.182 36.7172 40.7861 37.1315Z" fill="#FF7637"/>
</g>
</svg>
