<svg width="64" height="56" viewBox="0 0 64 56" fill="none" xmlns="http://www.w3.org/2000/svg">
<mask id="mask0_4_44" style="mask-type:alpha" maskUnits="userSpaceOnUse" x="0" y="0" width="64" height="56">
<rect width="64" height="56" fill="#D9D9D9"/>
</mask>
<g mask="url(#mask0_4_44)">
<path d="M60.9604 47.4187C60.7742 47.7864 60.6261 48.1827 60.3874 48.517C59.8192 49.324 58.9931 49.663 58.0237 49.6821C57.508 49.6917 56.9971 49.6821 56.3907 49.6821C56.3907 50.3124 56.3477 50.9141 56.3955 51.5157C56.5912 53.9701 54.7624 55.9851 51.9786 55.9756C36.9039 55.9374 21.8291 55.9565 6.75443 55.9565C4.43854 55.9565 2.81504 54.6911 2.44736 52.5996C2.40439 52.337 2.39961 52.0696 2.39961 51.8022C2.39961 44.0285 2.39961 36.25 2.39961 28.4763C2.39961 25.9264 4.06609 24.2552 6.6255 24.2552C21.7957 24.2504 36.9659 24.2504 52.1362 24.2552C54.7385 24.2552 56.3811 25.9121 56.3907 28.5097C56.3907 29.1543 56.3907 29.7989 56.3907 30.5486C58.3914 30.3624 60.2059 30.5486 60.9604 32.7833V47.4235V47.4187ZM29.4214 25.6256C21.8578 25.6256 14.2894 25.6256 6.72578 25.6256C4.78712 25.6256 3.77482 26.6474 3.77482 28.5956C3.77482 36.293 3.77482 43.9951 3.77482 51.6924C3.77482 51.9741 3.77482 52.2702 3.83689 52.5423C4.13294 53.865 5.16435 54.586 6.73533 54.5908C21.8291 54.5908 36.923 54.5908 52.0168 54.5908C52.1887 54.5908 52.3606 54.5908 52.5325 54.5813C54.0271 54.4571 55.0059 53.4018 55.0203 51.9025C55.0298 50.9857 55.0155 50.0737 55.0203 49.1568C55.025 48.5552 55.259 48.3308 55.8511 48.3212C56.5005 48.3117 57.1451 48.3212 57.7945 48.3212C59.017 48.3117 59.5852 47.7482 59.5852 46.5401C59.5852 42.2522 59.5852 37.9642 59.5852 33.6763C59.5852 32.5016 59.0074 31.9143 57.8423 31.8999C57.2693 31.8952 56.7011 31.8999 56.1281 31.8999C55.1826 31.8999 55.0203 31.7424 55.0203 30.816C55.0203 30.4149 55.0203 30.0138 55.0203 29.6175C55.0203 29.2546 55.0203 28.8917 55.0203 28.5336C55.0203 26.6713 53.9889 25.6351 52.1171 25.6351C44.5534 25.6351 36.985 25.6351 29.4214 25.6351V25.6256Z" fill="black"/>
<path d="M47.9532 17.6466C47.6142 17.5367 47.2418 17.5033 46.8884 17.4985C45.4225 17.4842 43.9566 17.4938 42.3522 17.4938C42.5002 17.3171 42.5575 17.2454 42.6148 17.1786C43.8181 15.7031 45.0309 14.2372 46.2199 12.7522C47.0126 11.759 47.4901 10.6225 47.5283 9.3428C47.5617 8.27797 47.6142 7.20837 47.5474 6.14354C47.4566 4.57256 46.8741 3.18303 45.7329 2.06568C43.3788 -0.250202 39.3869 -0.675178 36.5314 1.07725C34.4065 2.37606 33.4324 4.31471 33.4133 6.75474C33.4038 7.88642 34.1869 8.74593 35.2995 8.92738C36.307 9.08973 37.3432 8.4642 37.6726 7.46145C37.7634 7.17972 37.7872 6.86934 37.8207 6.56374C37.9353 5.40819 38.6324 4.64419 39.7736 4.42454C41.1679 4.16191 42.462 4.66806 42.949 5.66604C43.0063 5.78542 43.078 5.90957 43.0923 6.03849C43.2594 7.7193 43.3597 9.35713 42.228 10.8374C40.1509 13.5496 37.8827 16.0421 34.8936 17.785C34.3445 18.105 33.9768 18.5825 33.8479 19.2175C33.547 20.693 34.5737 21.8868 36.1733 21.8915C39.7927 21.9011 43.4122 21.8963 47.0317 21.8963C47.1463 21.8963 47.2609 21.8963 47.3755 21.882C48.4403 21.7674 49.2568 20.9747 49.3905 19.9338C49.5099 18.9692 48.9035 17.9665 47.9532 17.6466Z" fill="#FF7637"/>
<path d="M29.0299 17.3028C27.5353 15.8034 26.0311 14.3136 24.5175 12.8333C24.3742 12.6949 24.1498 12.6376 23.8967 12.5086C24.2692 12.1744 24.4315 12.0359 24.5795 11.8879C26.0359 10.4363 27.4875 8.9799 28.9487 7.52352C29.4739 6.99827 29.7748 6.3823 29.6793 5.62784C29.5647 4.76357 29.1063 4.13326 28.2706 3.84676C27.4302 3.55549 26.6471 3.68919 25.9977 4.33381C24.484 5.83317 22.9799 7.34685 21.4662 8.85575C21.3278 8.999 21.175 9.1327 20.9649 9.3237C20.793 9.1136 20.6688 8.9417 20.5208 8.79368C19.0549 7.3182 17.5889 5.84749 16.1134 4.38634C15.3876 3.66531 14.404 3.50774 13.5349 3.92794C12.7232 4.31949 12.2027 5.16467 12.3842 6.09102C12.4844 6.59717 12.7566 7.1463 13.1147 7.51875C14.6809 9.15658 16.3092 10.7323 18.0473 12.4609C17.8324 12.6041 17.6319 12.6996 17.4839 12.8429C16.0036 14.304 14.5377 15.7747 13.0574 17.2311C12.451 17.8328 12.2266 18.5443 12.408 19.3703C12.5847 20.1821 13.1004 20.7264 13.8883 20.9652C14.7239 21.2135 15.4736 20.9891 16.0896 20.3731C17.5889 18.8833 19.0835 17.3839 20.5829 15.8893C20.7261 15.7461 20.8789 15.6124 21.089 15.4166C21.2561 15.6172 21.3803 15.7843 21.5283 15.9323C22.9799 17.3887 24.4411 18.8403 25.8879 20.3015C26.3845 20.8028 26.9527 21.1132 27.669 21.0464C28.5906 20.9604 29.2352 20.4638 29.5647 19.6091C29.8989 18.74 29.6745 17.9522 29.0299 17.3028Z" fill="#FF7637"/>
<path d="M15.359 40.0939C15.359 43.7516 15.359 47.4092 15.359 51.0669C15.359 51.9885 15.211 52.1365 14.3037 52.1365C12.2457 52.1365 10.1877 52.1365 8.13442 52.1365C7.37519 52.1365 7.18419 51.9455 7.18419 51.1958C7.18419 43.8041 7.18419 36.4124 7.18419 29.0254C7.18419 28.2614 7.37041 28.0752 8.12009 28.0704C10.1972 28.0704 12.2744 28.0704 14.3467 28.0704C15.2062 28.0704 15.359 28.2328 15.359 29.1257C15.359 32.7834 15.359 36.441 15.359 40.0987V40.0939ZM13.9456 50.7374V29.4886H8.58804V50.7374H13.9456Z" fill="black"/>
<path d="M18.501 40.0987C18.501 36.441 18.501 32.7833 18.501 29.1257C18.501 28.2089 18.6442 28.0656 19.561 28.0656C21.5999 28.0656 23.6389 28.0656 25.6778 28.0656C26.5134 28.0656 26.6806 28.2328 26.6806 29.0684C26.6806 36.4219 26.6806 43.7754 26.6806 51.1242C26.6806 51.9598 26.5087 52.1269 25.673 52.1269C23.615 52.1269 21.557 52.1269 19.5037 52.1269C18.6681 52.1269 18.501 51.9598 18.501 51.1194C18.501 47.4426 18.501 43.7659 18.501 40.0891V40.0987ZM19.9096 29.4695V50.7183H25.2767V29.4695H19.9096Z" fill="black"/>
<path d="M43.3644 38.012C40.8003 42.0039 38.2456 45.9958 35.691 49.9877C35.6289 50.0832 35.5668 50.1787 35.5095 50.279C35.2803 50.6514 34.9843 50.9284 34.5259 50.7374C34.077 50.5512 34.0723 50.1596 34.1439 49.7251C34.5832 47.0941 35.0034 44.463 35.4331 41.832C35.4522 41.7031 35.4522 41.5694 35.4666 41.3449C34.5402 41.3449 33.6712 41.3497 32.7973 41.3449C32.0286 41.3354 31.7612 40.982 31.9808 40.2371C32.9692 36.8803 33.9672 33.5282 34.9461 30.1666C35.1037 29.6271 35.3902 29.3835 35.9632 29.3931C37.4864 29.417 39.0144 29.3931 40.5376 29.4026C41.464 29.4074 41.7218 29.799 41.3876 30.6823C40.7239 32.4252 40.0554 34.1681 39.3916 35.911C39.32 36.102 39.2532 36.2977 39.1577 36.5651C40.3657 36.5651 41.5022 36.5365 42.6386 36.5795C42.9824 36.5938 43.4265 36.7132 43.6271 36.9471C43.9374 37.31 43.5841 37.673 43.3644 38.012Z" fill="#FF7637"/>
</g>
</svg>
