<svg width="64" height="56" viewBox="0 0 64 56" fill="none" xmlns="http://www.w3.org/2000/svg">
<mask id="mask0_13_187" style="mask-type:alpha" maskUnits="userSpaceOnUse" x="0" y="0" width="64" height="56">
<rect width="64" height="56" fill="#D9D9D9"/>
</mask>
<g mask="url(#mask0_13_187)">
<path d="M45.0138 27.5766C45.5323 27.5766 45.9719 27.5691 46.4128 27.5791C46.9902 27.5916 47.2707 28.0162 47.024 28.5297C46.637 29.335 46.2324 30.1329 45.8241 30.9269C45.6363 31.2914 45.3044 31.4066 44.985 31.2526C44.6468 31.0898 44.5366 30.7453 44.7207 30.3621C44.9587 29.8636 45.2117 29.3714 45.486 28.8228C44.9887 28.8228 44.5529 28.829 44.117 28.8215C43.4983 28.8115 43.2265 28.3819 43.4971 27.8258C43.8765 27.0455 44.2661 26.2703 44.6618 25.4987C44.8585 25.1142 45.1992 24.9927 45.5286 25.1631C45.8555 25.3322 45.9544 25.6766 45.769 26.0623C45.5348 26.5496 45.2881 27.0318 45.0163 27.5778L45.0138 27.5766Z" fill="#FF7637"/>
<path d="M64 44.3272C63.7545 45.2691 63.5792 46.236 63.2523 47.1491C61.6779 51.5377 57.3306 54.5048 52.6301 54.4497C47.9233 54.3946 43.6498 51.3336 42.1406 46.9349C42.0467 46.6593 41.9578 46.3813 41.8826 46.1007C41.6989 45.4194 41.2643 45.0787 40.5788 45.0787H33.7503C33.7503 44.8245 33.7528 44.604 33.7503 44.3849C33.7203 42.198 33.8117 40.0025 33.6326 37.8282C33.193 32.4926 30.8108 28.119 26.63 24.7937C22.2915 21.3432 17.3104 20.1132 11.8484 20.9824C8.92886 21.4471 6.26486 22.5994 3.88391 24.3729C3.6497 24.547 3.41674 24.7223 3.18127 24.8927C3.14996 24.9152 3.10487 24.9165 3.02972 24.9377C2.27073 24.0197 1.50171 23.0916 0.690109 22.1097C3.25767 19.9717 6.15213 18.5401 9.35094 17.6722V5.71859H5.65866V2H35.5827V5.68978H32.5166C34.0309 10.736 35.5213 15.7083 37.0143 20.6806H45.2505C45.2505 20.4401 45.2505 20.2197 45.2505 19.998C45.2505 17.1649 45.2367 14.3318 45.2543 11.4987C45.2718 8.73954 46.8462 6.65919 49.4638 5.91147C49.8959 5.78747 50.3556 5.75741 50.8428 5.67725V9.3232C50.4257 9.53862 49.9197 9.66637 49.6254 9.98701C49.3135 10.3277 49.038 10.85 49.0305 11.2971C48.9804 14.3995 49.0042 17.5018 49.0042 20.7006C49.306 20.7006 49.5878 20.6894 49.8684 20.7031C51.444 20.7795 53.0597 20.6668 54.5864 20.9837C57.8366 21.6575 60.1662 24.6434 60.2363 27.9712C60.2802 30.0741 60.2326 32.1795 60.2676 34.2824C60.2726 34.5918 60.4305 34.9713 60.6459 35.1905C62.3956 36.9702 63.4815 39.0731 63.8697 41.538C63.8985 41.7196 63.9562 41.8962 64 42.0753V44.3247V44.3272ZM13.1522 17.0046C13.3376 17.0046 13.4803 17.0121 13.6219 17.0046C17.973 16.7491 22.0886 17.6258 25.8573 19.8064C27.0383 20.4902 28.1768 20.7858 29.4994 20.7157C30.6743 20.6543 31.8541 20.7031 33.104 20.7031C31.5861 15.6457 30.0956 10.6771 28.6127 5.73487H13.1522V17.0071V17.0046ZM52.7553 50.6998C56.886 50.6961 60.2589 47.3106 60.2463 43.18C60.2351 39.0756 56.8772 35.7165 52.7728 35.704C48.6422 35.6915 45.2543 39.0631 45.2505 43.1938C45.2455 47.3244 48.6247 50.7048 52.7553 50.7011V50.6998ZM56.4989 32.6104C56.4989 31.1487 56.5065 29.7961 56.4977 28.4434C56.4827 26.0349 54.9083 24.4568 52.4935 24.4543C45.7665 24.4468 39.0395 24.4518 32.3125 24.4543C32.1634 24.4543 32.0144 24.4856 31.7877 24.5119C33.6038 26.5898 35.0003 28.8204 35.9421 31.3178C36.12 31.79 36.3442 31.9704 36.8752 31.9679C41.4981 31.9428 46.1222 31.9578 50.7464 31.9516C52.6614 31.9491 54.5789 31.8852 56.5002 32.6129L56.4989 32.6104ZM37.5704 41.3263C38.8278 41.3263 40.0916 41.3401 41.3541 41.3075C41.4918 41.3038 41.7073 41.057 41.7448 40.8905C42.1582 39.0518 42.9597 37.4098 44.1634 35.9607C44.2097 35.9056 44.2297 35.828 44.2761 35.734H37.2848C37.38 37.5852 37.4727 39.405 37.5716 41.3263H37.5704Z" fill="black"/>
<path d="M14.9908 54.4497C6.74957 54.4422 0.00877576 47.7039 8.46563e-06 39.4601C-0.00875883 31.2039 6.79341 24.4142 15.0359 24.453C23.2922 24.4919 30.0192 31.2464 29.9967 39.4739C29.9741 47.7227 23.2258 54.4572 14.9908 54.4497ZM15.0134 28.2029C8.83368 28.1904 3.76118 33.2479 3.74865 39.4351C3.73613 45.6148 8.7936 50.6873 14.9808 50.6998C21.1605 50.7123 26.233 45.6549 26.2455 39.4677C26.2581 33.288 21.2006 28.2155 15.0134 28.2029Z" fill="black"/>
<path d="M54.619 43.185C54.629 44.2046 53.7849 45.0625 52.7653 45.0725C51.7458 45.0825 50.8879 44.2384 50.8779 43.2189C50.8678 42.1994 51.712 41.3414 52.7315 41.3314C53.751 41.3214 54.609 42.1655 54.619 43.185Z" fill="#FF7637"/>
<path d="M14.9733 33.8315C11.9022 33.8565 9.36848 36.4066 9.37725 39.4613C9.38727 42.5487 11.9962 45.1275 15.0547 45.0724C18.1383 45.0173 20.6583 42.4522 20.6194 39.4112C20.5793 36.3339 18.0218 33.8064 14.9733 33.8315Z" fill="#FF7637"/>
</g>
</svg>
