<svg width="64" height="56" viewBox="0 0 64 56" fill="none" xmlns="http://www.w3.org/2000/svg">
<mask id="mask0_6_80" style="mask-type:alpha" maskUnits="userSpaceOnUse" x="0" y="0" width="64" height="56">
<rect width="64" height="56" fill="#D9D9D9"/>
</mask>
<g mask="url(#mask0_6_80)">
<path d="M61.4346 41.2164C59.4301 39.2294 57.0077 38.4336 54.2004 38.8184C53.9451 38.8534 53.5323 38.8884 53.4343 38.752C52.7207 37.748 52.0683 36.702 51.3512 35.5984C51.5943 35.5861 51.7202 35.5756 51.8462 35.5739C53.109 35.5547 53.3836 35.28 53.3836 34.0312C53.3836 32.1772 53.3889 30.3214 53.3819 28.4674C53.3784 27.5701 52.9918 27.1206 52.105 27.2098C50.3979 27.3812 48.6943 27.6226 47.0012 27.9077C46.5587 27.9829 46.3139 27.9584 46.1145 27.5544C45.3554 26.0205 44.1678 24.9081 42.695 24.0668C42.3172 23.8516 41.9919 23.542 41.6071 23.3426C41.2923 23.1782 40.9267 23.0226 40.5804 23.0156C38.7474 22.9841 36.9144 22.9893 35.0813 23.0051C33.5806 23.0191 32.4402 24.149 32.428 25.5954C32.4157 27.0717 33.5631 28.2138 35.0971 28.2365C35.9699 28.2488 36.8444 28.2295 37.7172 28.2418C39.1724 28.261 40.2131 28.9309 40.8917 30.3354H40.1939C38.534 30.3354 36.8759 30.3442 35.216 30.3319C32.6519 30.3127 30.2399 30.8934 28.0256 32.1912C26.4129 33.1374 24.6936 33.58 22.8361 33.4645C22.565 33.447 22.2467 33.3123 22.0543 33.1252C20.9226 32.0355 19.8382 30.8969 18.6978 29.8177C18.4214 29.5571 17.9912 29.3157 17.6291 29.3105C14.9233 29.2685 12.2175 29.2825 9.50993 29.2912C8.73159 29.293 8.3398 29.6865 8.3293 30.4596C8.31531 31.4181 8.31706 32.3801 8.3293 33.3386C8.33805 34.0644 8.65813 34.4248 9.36475 34.5279C11.4794 34.8358 13.5958 35.1279 15.7086 35.455C15.957 35.4934 16.2438 35.6509 16.403 35.8432C17.4857 37.1551 18.5439 38.4896 19.5968 39.8276C19.721 39.985 19.8364 40.2054 19.8399 40.3996C19.8627 41.5522 19.8504 42.7066 19.8504 43.9537C19.1193 43.9537 18.4652 43.9135 17.818 43.9659C17.2968 44.0097 17.0712 43.805 16.8473 43.352C14.967 39.5285 10.5244 37.7812 6.47004 39.2382C2.53988 40.6514 0.260843 44.8789 1.21758 48.9823C2.0414 52.5119 4.90987 55.0288 8.58117 55.4451C11.9429 55.8264 15.3676 53.9146 16.884 50.7698C17.0886 50.3483 17.3195 50.2084 17.7673 50.2293C18.5089 50.2661 19.254 50.2119 19.9939 50.2538C20.265 50.2713 20.585 50.3955 20.7809 50.5774C21.5768 51.3225 22.3044 52.1446 23.1212 52.8634C23.4325 53.1381 23.9153 53.3584 24.3228 53.3602C29.3654 53.3934 34.4062 53.3759 39.4488 53.3917C40.0295 53.3917 40.4317 53.1835 40.7938 52.7445C42.3732 50.8223 43.9911 48.9315 45.5478 46.9918C45.8329 46.6368 46.0165 46.0998 46.027 45.6415C46.0742 43.373 46.048 41.1027 46.048 38.8342V38.2132C46.9295 39.3099 47.6711 40.4555 48.4512 41.5732C48.6996 41.9283 48.7118 42.1609 48.4652 42.5422C47.3178 44.3087 46.8841 46.2467 47.2024 48.3456C47.7394 51.891 50.5344 54.7839 53.9818 55.3401C57.7091 55.9418 61.2247 54.2137 62.9195 50.9465C64.5899 47.7282 64.0057 43.7648 61.4346 41.2164ZM8.01097 53.2343C5.16873 52.6308 3.08559 50.0335 3.08559 47.0933C3.08734 44.1548 5.17748 41.5522 8.01622 40.9558C10.7133 40.3891 13.7532 41.7254 14.7187 43.9537C12.9101 43.9537 11.1296 43.9379 9.35076 43.9589C7.5772 43.9799 6.20243 45.4142 6.23392 47.1615C6.2654 48.8458 7.62443 50.2084 9.34901 50.2329C10.9197 50.2573 12.4921 50.2398 14.0628 50.2398H14.7169C13.7409 52.4647 10.6871 53.8045 8.01097 53.2343ZM10.4159 47.0705C10.4317 47.6565 9.9367 48.1532 9.34901 48.1392C8.78756 48.127 8.32581 47.6512 8.3293 47.0898C8.3328 46.5248 8.7998 46.0578 9.363 46.0543C9.92621 46.0491 10.4002 46.5073 10.4159 47.0705ZM19.8224 48.1095H12.4571V46.0823H19.8224V48.1095ZM51.2515 29.2423V33.3771C50.2475 33.6517 50.0324 33.5765 49.5042 32.7631C48.9042 31.8361 48.3061 30.9109 47.6099 29.8334C48.8867 29.6271 50.0429 29.4382 51.2515 29.2423ZM40.4702 26.8863C39.1829 25.9365 37.7032 26.1516 36.2585 26.1447C35.8877 26.1429 35.5029 26.2059 35.1548 26.1202C34.9204 26.0642 34.7385 25.7948 34.5321 25.6217C34.7385 25.4468 34.9379 25.1284 35.1478 25.1214C36.4736 25.0742 37.8064 25.1722 39.1269 25.0742C40.2638 24.9885 41.1436 25.3838 42.0094 26.1744C41.6421 26.421 41.3308 26.6606 40.9914 26.8425C40.8463 26.9212 40.5787 26.9667 40.4702 26.8863ZM21.0258 38.264C19.9414 36.8682 18.8482 35.4777 17.7061 34.1292C17.4385 33.8143 16.9855 33.5485 16.5797 33.4785C14.5595 33.1374 12.5271 32.8681 10.4614 32.569V31.3831H12.1318C13.6815 31.3831 15.2311 31.3621 16.7808 31.3989C17.0869 31.4059 17.4577 31.5563 17.6781 31.7662C18.7992 32.8348 19.8574 33.9717 20.9943 35.0229C21.3109 35.315 21.8146 35.5197 22.2502 35.5529C24.823 35.7436 27.2105 35.1681 29.4353 33.8126C30.6702 33.0587 32.0642 32.6704 33.5841 32.6634C33.0384 33.1532 32.4945 33.6464 31.9453 34.1344C30.3641 35.5424 28.7899 36.9592 27.1878 38.3427C26.9517 38.5473 26.5844 38.6907 26.273 38.6995C24.8545 38.7362 23.4343 38.6995 22.0158 38.7257C21.5855 38.7327 21.2969 38.612 21.0258 38.264ZM41.1034 38.7152C42.0181 38.7187 42.9347 38.7152 43.9019 38.7152V40.8124C42.8962 40.8124 41.8782 40.8071 40.862 40.8141C40.2848 40.8194 39.8948 41.1132 39.7898 41.6764C39.6884 42.2134 39.9315 42.6244 40.444 42.8185C40.6591 42.899 40.9127 42.9007 41.1489 42.9025C42.0601 42.9112 42.9714 42.906 43.9176 42.906V45.0014H41.5354C41.2958 45.0014 41.0544 44.9909 40.8165 45.0066C40.1904 45.0486 39.7706 45.4701 39.7671 46.0421C39.7618 46.6123 40.1816 47.06 40.8025 47.088C41.406 47.1143 42.0112 47.0933 42.765 47.0933C41.5791 48.517 40.4877 49.8376 39.3736 51.1371C39.2739 51.2543 39.0237 51.2805 38.8418 51.2805C34.1928 51.2893 29.5438 51.2928 24.8947 51.2735C24.6499 51.2735 24.3543 51.1284 24.1689 50.957C23.513 50.35 22.8886 49.7099 22.2676 49.0645C22.1277 48.9193 21.9633 48.7112 21.9616 48.5293C21.9423 45.9826 21.9493 43.4342 21.9493 40.8106C23.6389 40.8106 25.2323 40.8438 26.8222 40.7896C27.2595 40.7739 27.7825 40.6007 28.106 40.3174C30.9378 37.8529 33.7241 35.3395 36.5488 32.8681C36.8252 32.625 37.2642 32.4623 37.635 32.4501C39.0097 32.4011 40.3845 32.4448 41.7593 32.4203C42.1721 32.4133 42.4589 32.499 42.6601 32.8873C42.8385 33.2336 43.0483 33.5817 43.3125 33.865C44.0523 34.6521 44.0226 35.5844 43.9071 36.6198C42.9679 36.6198 42.0356 36.6181 41.1051 36.6216C40.2393 36.6251 39.7444 37.0274 39.7671 37.699C39.7863 38.3462 40.2621 38.7117 41.1034 38.7152ZM42.27 28.5391C42.7265 28.2295 43.1568 27.9375 43.65 27.6034C47.2269 33.1025 50.7862 38.577 54.3701 44.0901C53.9398 44.3752 53.5795 44.6131 53.1685 44.8842C49.5426 39.4463 45.9186 34.012 42.27 28.5391ZM59.0716 52.246C56.6106 53.9654 53.3049 53.71 51.1326 51.6321C49.0599 49.6504 48.5702 46.3796 50.0761 43.9747C50.8754 45.4771 52.0771 46.628 52.579 48.2372C52.9673 49.4807 54.2092 50.2486 55.514 50.2346C56.7908 50.2224 57.9312 49.4335 58.3982 48.2372C58.8792 47.0128 58.4751 45.7377 57.6041 44.753C56.5669 43.5829 55.6924 42.2658 54.6989 40.947C57.2421 40.3926 60.1403 42.0717 61.2387 44.5851C62.4368 47.3241 61.529 50.5302 59.0716 52.246ZM54.4365 47.0985C54.4365 46.5091 54.9368 46.0281 55.5262 46.0543C56.0877 46.0788 56.5389 46.565 56.5214 47.1265C56.5039 47.6897 56.0265 48.148 55.465 48.1392C54.9001 48.1322 54.4365 47.6617 54.4365 47.0985Z" fill="black"/>
<path d="M43.9176 42.906V45.0014H41.5354C41.2958 45.0014 41.0544 44.9909 40.8165 45.0067C40.1904 45.0487 39.7706 45.4702 39.7671 46.0421C39.7618 46.6123 40.1816 47.0601 40.8025 47.0881C41.406 47.1143 42.0112 47.0933 42.765 47.0933C41.5791 48.5171 40.4877 49.8376 39.3736 51.1372C39.2739 51.2544 39.0237 51.2806 38.8418 51.2806C34.1928 51.2893 29.5438 51.2928 24.8947 51.2736C24.6499 51.2736 24.3543 51.1284 24.1689 50.957C23.513 50.3501 22.8886 49.7099 22.2676 49.0645C22.1277 48.9193 21.9633 48.7112 21.9616 48.5293C21.9423 45.9827 21.9493 43.4343 21.9493 40.8107C23.6389 40.8107 25.2323 40.8439 26.8222 40.7897C27.2595 40.7739 27.7825 40.6008 28.106 40.3174C30.9378 37.853 33.7241 35.3396 36.5488 32.8681C36.8252 32.625 37.2642 32.4623 37.635 32.4501C39.0097 32.4011 40.3845 32.4449 41.7593 32.4204C42.1721 32.4134 42.4589 32.4991 42.6601 32.8874C42.8385 33.2337 43.0484 33.5818 43.3125 33.8651C44.0523 34.6522 44.0226 35.5844 43.9071 36.6199C42.9679 36.6199 42.0356 36.6181 41.1051 36.6216C40.2393 36.6251 39.7444 37.0274 39.7671 37.6991C39.7863 38.3462 40.2621 38.7118 41.1034 38.7153C42.0181 38.7188 42.9347 38.7153 43.9019 38.7153V40.8124C42.8962 40.8124 41.8782 40.8072 40.862 40.8142C40.2848 40.8194 39.8948 41.1132 39.7898 41.6764C39.6884 42.2134 39.9315 42.6244 40.444 42.8186C40.6591 42.899 40.9127 42.9008 41.1489 42.9025C42.0601 42.9113 42.9714 42.906 43.9176 42.906Z" fill="#FF7637"/>
<path d="M28.281 1.00003C37.99 1.01752 44.5928 11.0222 40.7833 19.9372C40.5682 20.4427 40.3076 20.8852 39.6796 20.8992C38.9048 20.9149 38.485 20.1768 38.7351 19.3565C39.0745 18.2354 39.4837 17.116 39.6517 15.9668C40.5489 9.83108 35.8072 3.84226 29.6155 3.21435C22.537 2.49548 16.6444 7.81965 16.7266 14.8614C16.7913 20.4742 21.1972 25.3908 26.7505 26.0257C27.4851 26.1097 28.2285 26.1219 28.9683 26.1254C29.8271 26.1289 30.2941 26.4385 30.3309 27.0909C30.3676 27.759 29.8901 28.1753 29.0243 28.2261C22.8903 28.5864 17.1936 24.7069 15.2924 18.8755C12.4099 10.0305 18.9846 0.982535 28.281 1.00003Z" fill="black"/>
<path d="M35.4714 13.1596C35.2265 12.6156 34.7648 12.5124 34.226 12.5212C33.341 12.5369 32.4577 12.5247 31.5377 12.5247C31.8281 10.5097 32.0992 8.58925 32.386 6.67226C32.4735 6.08108 32.3983 5.5721 31.7983 5.29575C31.2194 5.02814 30.8031 5.30449 30.4253 5.72952C27.7457 8.75016 25.0644 11.7656 22.3796 14.7792C22.0385 15.1605 21.8094 15.5593 22.0455 16.0788C22.2746 16.5895 22.7032 16.7259 23.2244 16.7189C24.1164 16.7067 25.0084 16.7154 25.9774 16.7154C25.6923 18.7076 25.4282 20.6071 25.1431 22.5031C25.0504 23.1135 25.0854 23.6505 25.7186 23.9443C26.3307 24.2259 26.7488 23.8989 27.1371 23.4616C29.7869 20.4742 32.4385 17.4903 35.0953 14.5098C35.4469 14.1146 35.7197 13.7123 35.4714 13.1596Z" fill="#FF7637"/>
<path d="M32.0327 42.906C32.9037 42.906 33.6436 42.892 34.3835 42.9095C35.3559 42.9305 35.8247 43.6441 35.4102 44.5081C34.7595 45.8619 34.0809 47.2017 33.3935 48.538C33.0786 49.1502 32.5207 49.3443 31.982 49.0872C31.4135 48.8144 31.2281 48.2354 31.536 47.59C31.9365 46.7522 32.3615 45.9249 32.8215 45.0014C31.9855 45.0014 31.2526 45.0101 30.5198 44.9996C29.4791 44.9821 29.0243 44.2615 29.4791 43.3258C30.1175 42.014 30.7716 40.7109 31.4363 39.4131C31.7668 38.7677 32.3405 38.5631 32.8932 38.8482C33.4425 39.1315 33.6104 39.7104 33.299 40.3611C32.9055 41.1814 32.491 41.9912 32.0345 42.9077L32.0327 42.906Z" fill="black"/>
</g>
</svg>
