<svg xmlns="http://www.w3.org/2000/svg" version="1.1" xmlns:xlink="http://www.w3.org/1999/xlink" xmlns:svgjs="http://svgjs.dev/svgjs" width="1440" height="250" preserveAspectRatio="none" viewBox="0 0 1440 250"><g mask="url(&quot;#SvgjsMask1048&quot;)" fill="none"><rect width="1440" height="250" x="0" y="0" fill="rgba(247, 247, 247, 1)"></rect><path d="M34 250L284 0L632 0L382 250z" fill="url(&quot;#SvgjsLinearGradient1049&quot;)"></path><path d="M271.6 250L521.6 0L647.6 0L397.6 250z" fill="url(&quot;#SvgjsLinearGradient1049&quot;)"></path><path d="M503.20000000000005 250L753.2 0L915.2 0L665.2 250z" fill="url(&quot;#SvgjsLinearGradient1049&quot;)"></path><path d="M758.8000000000001 250L1008.8000000000001 0L1280.3000000000002 0L1030.3000000000002 250z" fill="url(&quot;#SvgjsLinearGradient1049&quot;)"></path><path d="M1412 250L1162 0L940 0L1190 250z" fill="url(&quot;#SvgjsLinearGradient1050&quot;)"></path><path d="M1164.4 250L914.4000000000001 0L698.4000000000001 0L948.4000000000001 250z" fill="url(&quot;#SvgjsLinearGradient1050&quot;)"></path><path d="M938.8 250L688.8 0L414.29999999999995 0L664.3 250z" fill="url(&quot;#SvgjsLinearGradient1050&quot;)"></path><path d="M701.1999999999999 250L451.19999999999993 0L266.69999999999993 0L516.6999999999999 250z" fill="url(&quot;#SvgjsLinearGradient1050&quot;)"></path><path d="M1292.0574895063721 250L1440 102.05748950637206L1440 250z" fill="url(&quot;#SvgjsLinearGradient1049&quot;)"></path><path d="M0 250L147.94251049362794 250L 0 102.05748950637206z" fill="url(&quot;#SvgjsLinearGradient1050&quot;)"></path></g><defs><mask id="SvgjsMask1048"><rect width="1440" height="250" fill="#ffffff"></rect></mask><linearGradient x1="0%" y1="100%" x2="100%" y2="0%" id="SvgjsLinearGradient1049"><stop stop-color="rgba(229, 229, 229, 0.35)" offset="0"></stop><stop stop-opacity="0" stop-color="rgba(229, 229, 229, 0.35)" offset="0.66"></stop></linearGradient><linearGradient x1="100%" y1="100%" x2="0%" y2="0%" id="SvgjsLinearGradient1050"><stop stop-color="rgba(229, 229, 229, 0.35)" offset="0"></stop><stop stop-opacity="0" stop-color="rgba(229, 229, 229, 0.35)" offset="0.66"></stop></linearGradient></defs></svg>