<svg xmlns="http://www.w3.org/2000/svg" version="1.1" xmlns:xlink="http://www.w3.org/1999/xlink" xmlns:svgjs="http://svgjs.dev/svgjs" width="1440" height="547" preserveAspectRatio="none" viewBox="0 0 1440 547"><g mask="url(&quot;#SvgjsMask1067&quot;)" fill="none"><rect width="1440" height="547" x="0" y="0" fill="rgba(247, 247, 247, 1)"></rect><path d="M1012.739,530.552C1028.938,531.108,1046.428,527.969,1055.085,514.266C1064.221,499.806,1062.488,480.823,1053.252,466.427C1044.686,453.077,1028.593,447.752,1012.739,448.265C997.854,448.747,984.134,456.106,976.526,468.909C968.744,482.003,967.431,498.388,975.147,511.521C982.772,524.5,997.695,530.035,1012.739,530.552" fill="rgba(32, 32, 32, 0.1450980392156863)" class="triangle-float3"></path><path d="M111.10791406192905 147.71949730212174L156.26702581865408 30.07598909339214 38.62351760992448-15.083122663332887-6.535594146800548 102.56038554539671z" fill="rgba(32, 32, 32, 0.1450980392156863)" class="triangle-float3"></path><path d="M1235.245498690115 242.7227948659934L1182.0162126946552 321.6384566646641 1260.9318744933257 374.867742660124 1314.1611604887858 295.9520808614533z" fill="rgba(32, 32, 32, 0.1450980392156863)" class="triangle-float3"></path><path d="M799.3102405010605 73.37810837073852L883.1031847611572 46.152130375287044 855.8772067657058-37.64081388480962 772.0842625056091-10.414835889358145z" fill="rgba(32, 32, 32, 0.1450980392156863)" class="triangle-float3"></path><path d="M383.707,334.803C400.661,334.281,412.245,320.074,421.187,305.66C430.85,290.084,440.785,272.178,432.79,255.683C424.034,237.618,403.781,228.142,383.707,228.33C363.957,228.515,345.341,239.084,336.19,256.587C327.61,273,332.39,292.269,342.006,308.097C351.192,323.217,366.023,335.347,383.707,334.803" fill="rgba(32, 32, 32, 0.1450980392156863)" class="triangle-float3"></path><path d="M386.8222268320319 103.13393436518045L303.7316637759781 86.98276503191764 370.6710574987691 186.22449742123422z" fill="rgba(32, 32, 32, 0.1450980392156863)" class="triangle-float2"></path><path d="M960.1402805903161 48.987658261650964L852.8157977779072 132.83873405525333 936.6668735715095 240.16321686766224 1043.9913563839184 156.31214107405992z" fill="rgba(32, 32, 32, 0.1450980392156863)" class="triangle-float2"></path><path d="M825.662,105.28C850.831,104.751,873.115,89.474,885.004,67.283C896.257,46.278,894.264,20.917,881.71,0.662C869.822,-18.519,848.213,-27.634,825.662,-28.462C801.278,-29.357,775.285,-24.2,762.001,-3.733C747.685,18.324,748.577,47.163,761.838,69.871C774.988,92.389,799.592,105.828,825.662,105.28" fill="rgba(32, 32, 32, 0.1450980392156863)" class="triangle-float2"></path><path d="M690.285,275.835C732.019,277.344,769.686,250.831,789.539,214.091C808.466,179.066,804.032,137.084,783.787,102.804C763.914,69.154,729.349,47.14,690.285,46.033C649.159,44.868,606.759,61.071,587.132,97.231C568.179,132.148,582.862,172.933,602.732,207.336C622.595,241.727,650.596,274.4,690.285,275.835" fill="rgba(32, 32, 32, 0.1450980392156863)" class="triangle-float2"></path><path d="M1166.045060915496 127.48106661539104L1145.4055441117985 233.12454939024056 1234.8951701583003 204.0476072792148z" fill="rgba(32, 32, 32, 0.1450980392156863)" class="triangle-float1"></path></g><defs><mask id="SvgjsMask1067"><rect width="1440" height="547" fill="#ffffff"></rect></mask><style>
                @keyframes float1 {
                    0%{transform: translate(0, 0)}
                    50%{transform: translate(-10px, 0)}
                    100%{transform: translate(0, 0)}
                }

                .triangle-float1 {
                    animation: float1 5s infinite;
                }

                @keyframes float2 {
                    0%{transform: translate(0, 0)}
                    50%{transform: translate(-5px, -5px)}
                    100%{transform: translate(0, 0)}
                }

                .triangle-float2 {
                    animation: float2 4s infinite;
                }

                @keyframes float3 {
                    0%{transform: translate(0, 0)}
                    50%{transform: translate(0, -10px)}
                    100%{transform: translate(0, 0)}
                }

                .triangle-float3 {
                    animation: float3 6s infinite;
                }
            </style></defs></svg>