<svg xmlns="http://www.w3.org/2000/svg" version="1.1" xmlns:xlink="http://www.w3.org/1999/xlink" xmlns:svgjs="http://svgjs.dev/svgjs" width="1440" height="560" preserveAspectRatio="none" viewBox="0 0 1440 560"><g mask="url(&quot;#SvgjsMask1002&quot;)" fill="none"><rect width="1440" height="560" x="0" y="0" fill="rgba(247, 247, 247, 1)"></rect><path d="M509.59 644.56C661.84 620.13 710.11 270.98 984.54 251.05 1258.97 231.12 1334.02 90.87 1459.49 88.65" stroke="rgba(229, 229, 229, 1)" stroke-width="2"></path><path d="M201.07 664.31C384.88 654.03 498.61 332.59 852.61 321.13 1206.62 309.67 1332.83 111 1504.16 108.33" stroke="rgba(229, 229, 229, 1)" stroke-width="2"></path><path d="M411.76 586.17C547.01 530.44 490.98 113.57 754.73 112.12 1018.49 110.67 1258.97 349.46 1440.68 352.92" stroke="rgba(229, 229, 229, 1)" stroke-width="2"></path><path d="M389.38 626.11C546.02 624.39 673.18 458.42 991.5 452.68 1309.82 446.94 1431.56 216.29 1593.62 211.88" stroke="rgba(229, 229, 229, 1)" stroke-width="2"></path><path d="M326.87 658.95C532.17 640.04 670.15 211.8 1019.53 211.4 1368.91 211 1527 470.21 1712.19 474.6" stroke="rgba(229, 229, 229, 1)" stroke-width="2"></path></g><defs><mask id="SvgjsMask1002"><rect width="1440" height="560" fill="#ffffff"></rect></mask></defs></svg>