<svg xmlns="http://www.w3.org/2000/svg" version="1.1" xmlns:xlink="http://www.w3.org/1999/xlink" xmlns:svgjs="http://svgjs.dev/svgjs" width="1440" height="560" preserveAspectRatio="none" viewBox="0 0 1440 560"><g mask="url(&quot;#SvgjsMask1072&quot;)" fill="none"><rect width="1440" height="560" x="0" y="0" fill="rgba(247, 247, 247, 1)"></rect><path d="M0,431.369C81.495,434.953,153.692,389.317,226.285,352.107C306.399,311.042,404.635,283.691,445.047,203.246C485.662,122.397,459.546,24.478,434.554,-62.479C411.929,-141.198,362.942,-206.115,309.542,-268.22C255.952,-330.547,202.496,-397.989,124.297,-423.316C45.194,-448.935,-45.482,-444.951,-119.564,-407.196C-189.192,-371.711,-202.679,-278.023,-261.578,-226.659C-335.147,-162.502,-477.662,-166.527,-503.484,-72.39C-528.307,18.103,-424.69,92.692,-370.117,169.027C-325.334,231.668,-276.667,288.22,-213.845,332.749C-148.481,379.08,-80.042,427.849,0,431.369" fill="#e8e8e8"></path><path d="M1440 1153.701C1549.393 1152.788 1641.224 1071.77 1720.338 996.2139999999999 1789.612 930.0550000000001 1823.754 840.501 1860.554 752.061 1896.109 666.611 1927.505 581.848 1931.232 489.371 1935.5810000000001 381.44399999999996 1934.607 270.768 1883.791 175.45299999999997 1825.944 66.94799999999998 1743.3980000000001-37.69799999999998 1627.836-79.71100000000001 1510.044-122.53499999999997 1381.099-85.457 1260.557-51.12800000000004 1139.1779999999999-16.561000000000035 1001.398 14.16700000000003 930.816 118.79000000000002 861.383 221.70999999999998 915.012 359.134 900.591 482.445 886.676 601.433 794.532 723.136 847.578 830.55 900.744 938.206 1051.233 943.423 1156.6390000000001 1000.919 1252.791 1053.368 1330.477 1154.615 1440 1153.701" fill="#ffffff"></path></g><defs><mask id="SvgjsMask1072"><rect width="1440" height="560" fill="#ffffff"></rect></mask></defs></svg>