<svg xmlns="http://www.w3.org/2000/svg" version="1.1" xmlns:xlink="http://www.w3.org/1999/xlink" xmlns:svgjs="http://svgjs.dev/svgjs" width="1440" height="560" preserveAspectRatio="none" viewBox="0 0 1440 560"><g mask="url(&quot;#SvgjsMask1098&quot;)" fill="none"><rect width="1440" height="560" x="0" y="0" fill="rgba(247, 247, 247, 1)"></rect><path d="M0,317.864C68.179,312.951,141.131,345.791,200.843,312.519C261.293,278.836,288,207.502,313.51,143.175C337.986,81.454,350.303,16.617,344.416,-49.519C338.287,-118.372,313.916,-182.162,279.23,-241.954C238.14,-312.785,205.745,-411.264,125.397,-427.063C43.605,-443.146,-12.872,-339.684,-92.507,-315.05C-170.336,-290.974,-273.999,-345.098,-330.208,-286.127C-385.829,-227.773,-347.003,-130.271,-345.461,-49.67C-344.172,17.713,-342.389,82.805,-321.923,147.017C-299.129,218.534,-286.652,307.682,-220.349,342.87C-153.704,378.239,-75.254,323.287,0,317.864" fill="#ebebeb"></path><path d="M1440 1176.217C1568.492 1177.071 1709.212 1216.5549999999998 1816.449 1145.766 1923.501 1075.0990000000002 1944.382 931.184 1991.77 811.985 2036.717 698.924 2105.268 587.256 2086.259 467.082 2067.334 347.44 1984.905 245.42200000000003 1890.204 169.89600000000002 1804.473 101.52300000000002 1693.275 82.666 1584.729 67.09899999999999 1488.853 53.34899999999999 1397.255 78.66399999999999 1300.629 85.34500000000003 1172.42 94.209 1016.9739999999999 24.178999999999974 923.89 112.78800000000001 832.837 199.464 870.662 355.501 885.721 480.307 898.067 582.628 974.744 660.637 1001.988 760.034 1036.723 886.762 971.4929999999999 1050.275 1066.752 1140.786 1159.225 1228.65 1312.444 1175.37 1440 1176.217" fill="#ffffff"></path></g><defs><mask id="SvgjsMask1098"><rect width="1440" height="560" fill="#ffffff"></rect></mask></defs></svg>